<svg width="44" height="44" viewBox="0 0 44 44" xmlns="http://www.w3.org/2000/svg" xmlns:xlink="http://www.w3.org/1999/xlink"><title>Icon - Flight</title><defs><path id="a" d="M0 .674h21V13H0z"/></defs><g fill="none" fill-rule="evenodd"><path d="M19.052 40.541c.189-.689.774.614.315.865-1.041-.05.135-.872-.315-.865zm.36-.718c-.212.017-.197-.252-.266-.42.213-.018.2.252.267.42zm.605-2.545c.094.48-.1.728-.582.742l-.074-.669.656-.073zm-.1-36.885c-.89-.162.837-.353 0 0zm-.07 1.358c.129-.16-.08.105 0 0zm.144-.692c-.668-.61.734.534 0 0zm.034 40.274c.213-.017.197.256.266.421-.213.02-.201-.252-.266-.42zm1.045 1.461c-.213.303-.141.48.269.424-.32 1.122-1.395.067-1.8-.254.15-.575.875.215 1.53-.17zm-.511-.617c-.082.103.126-.162 0 0zm.095-1.139c.128-.162-.081.103 0 0zm.46-37.847c-.082.101.126-.163 0 0zm.245 38.22c.126-.16-.081.104 0 0zm-1.917.663c.126-.16-.081.105 0 0zm-.95-.57c-.911-.462.689-.405 0 0zm-.411.27c.128-.16-.08.103 0 0zm-.074-38.69c-.081.103.126-.164 0 0zM17.95 31.51c-.082.103.129-.162 0 0zm.142-2.72c-.081.103.126-.162 0 0zm.252 11.377c-.89-.162.835-.353 0 0zM16.134 2.162c-.738-.357.01-1.187.289-1.382.536.193-.046 1.156-.29 1.382zm-.34.938c.495.681-.742-1.023 0 0zm-1.263-1.436c.082-.104-.127.161 0 0zm-.674 39.902l-.05-.445.438-.048.049.445-.437.048zm.314-37.158c-.213.018-.2-.253-.266-.42.212-.018.199.255.266.42zm-.78 34.957c-.08.101.128-.163 0 0zm-.437.048c-.081.102.128-.163 0 0zM11.33 4.723c-.26-.007-.23-.387-.291-.643.234-.216.552-.358 1.068-.343.444.9-1.22.085-.777.985zm-.118.914c.126-.16-.083.105 0 0zm-.483 1.633c-.081.102.128-.163 0 0zm-.871 3.048c-.892-.162.834-.353 0 0zm-.24 1.832c.215-.018.199.252.268.42-.213.017-.201-.255-.268-.42zm-.366-1.314c-.754-.12-.246-.476-.1-.89.547-.027.148.747.1.89zm-.59-4.243c.777.464-.488 1.134 0 0zm-.703-.37c.243.027.196.425.484.395-.024.63-.683.09-.484-.395zm.225 4.958c-.081.103.126-.162 0 0zm-.176 23.883c.128-.16-.081.105 0 0zM7.596 6.94c.214-.019.199.253.268.42-.213.018-.201-.255-.268-.42zm.026 28.62c-.892-.164.835-.355 0 0zm-.366-1.312c-.007.008-.01.01-.012.015.025-.032.1-.13.012-.015zm-.072 1.36c.128-.162-.082.103 0 0zm.142-2.72c.328.065-.001.2.05.444-.281-.023-.271-.416-.05-.444zm.045-1.584c.128-.159-.081.105 0 0zm.074.667c.192.023.198-.107.194-.244.645.234-.61.793-.461-.177.213-.017.2.256.267.421zm-.037-19.803c-.89-.163.835-.354 0 0zm-.341-1.09c-.892-.16.835-.35 0 0zm-.34.94c.214-.016.2.254.269.422-.213.02-.201-.254-.268-.422zm-.104 22.525c-.595.681.522-.743 0 0zm-.61-1.51c.129-.162-.08.103 0 0zm-.46-.175c-.51.116.008-.66.145-.694.354-.078.349.581-.144.694zm-.73-.597l-.436.048c-.154-.46.265-.456.606-.517-.021.187-.193.247-.17.47zm-.263 1.61c-.083.104.126-.163 0 0zm-.851.318c.149-.218.18-.53.12-.915.378-.113.529 1.205-.12.915zm.82-4.597c.213-.018.2.253.268.42-.213.018-.2-.255-.268-.42zm.169-.47c-.213.017-.2-.256-.268-.42.213-.019.2.252.268.42zm-.542-16.368c.212-.017.2.252.269.421-.213.017-.201-.256-.27-.42zm.603-2.548c-.213.02-.2-.25-.268-.419.214-.017.2.252.268.42zm.84 21.07c-.034.31-.527.244-.848.318l-.074-.668c.577-.226.489.395.923.35zM4.984 14.24c.129-.162-.08.103 0 0zm.346 14.587c.125-.16-.081.105 0 0zm.074.67c-.081.103.125-.165 0 0zM6.556 10.46c-.082.102.126-.16 0 0zM2.808 32.034c1.02.834-1.02-.833 0 0zm.796-2.79c-.28-.027-.267-.42-.05-.446.33.062 0 .196.05.445zm-.486-.397c.127-.165-.08.102 0 0zm-1.43 1.06c-.081.103.127-.165 0 0zm19.843 13.064c-.081.101.126-.163 0 0zm.314-1.163c.368-.088.607.317.657-.073.676-.024-.552 1.536-.39.495-.211.03-.138.29-.168.468-.547.026-.15-.746-.1-.89zm-.123-1.112c.658-.332.57.29.923.347-.08.557-1.091.24-.923-.347zm.543-30.172c-.082.102.126-.16 0 0zm-.038-9.26c-.76-.244.79-.65 0 0zm.56 1.062c.128-.16-.081.105 0 0zm1.199 21.756c.127-.162-.081.104 0 0zm.342 1.088c-.082.103.126-.162 0 0zm.394 3.562c.126-.16-.081.105 0 0zm.912 13.333c-.082.102.126-.16 0 0zm.168-.469c-.082.104.127-.16 0 0zm.357-39.84c-.082.1.128-.163 0 0zm.128 40.237c.128-.16-.081.101 0 0zm.658-.073c-.672-.61.732.534 0 0zm-.042-31.459c-.083.104.128-.16 0 0zm.98-9.123c-.212.02-.2-.254-.27-.422.214-.016.202.254.27.422zm.684 2.177c.327.064 0 .201.049.446-.283-.023-.272-.418-.05-.446zm.129 21.172l-.15-.006c.076.001.209.008.33.012-.054-.002-.11-.005-.18-.006zm.61 1.51c.128-.16-.08.105 0 0zm.475-7.714c-.082.103.126-.164 0 0zm.723-16.759c-.04.033-.14.111-.337.263-.426.33.218-.168.337-.263zm.61.836c-.082.104.126-.164 0 0zm.605 6.331c.958-.063-.143 1.088.756.818-.298.77-1.452-.827-1.967.218-.992-.69 1.046-.616 1.21-1.036zm1.125-2.693c-.365.123-.432-.128-.487-.395-1.081.656.499-1.009.487.395zm.248 4.257c-.214.015-.198-.256-.267-.423.213-.019.199.254.267.423zm.085-7.224c-.61-.687.794.458 0 0zm.172 1.557c.884.586-.578.827 0 0zm.104 2.92c.213-.015.199.254.266.421-.213.02-.2-.254-.266-.422zm.654-2.099c-.215.015-.202-.255-.27-.422.213-.018.199.254.27.422zm.64 5.787c-.013.26-.206.15-.22.024-.211.032-.14.292-.167.471-.224.588-.271-1.158-.975-.795.107-.44 1.056.158 1.362.3zm-.32-2.892c.882.583-.582.822 0 0zm.192-.249c-.76-.243.789-.649 0 0zm.8-.766c-.28-.066-.481-.234-.511-.619.28.067.48.237.51.62zm1.357-1.726c-.213.57-.816.82-1.431 1.06.219-.562.61-.985 1.43-1.06zm-1.215-.99c.327.062-.001.194.049.443-.282-.024-.267-.418-.05-.444zm.752.815c.128-.16-.081.105 0 0zm-.07 1.36c-.596.682.52-.74 0 0zM35.93 8.11c-.081.103.127-.16 0 0zm1.19.771c-1.11.11-1.23.565-1.941.44.21-.605 1.592-.527.919-1.68.549-.327.68 1.01.657-.074.794.184.695.7.366 1.314zm-.34.938c-.891-.164.837-.355 0 0zm1.506-.39c.408 1.276-1.534.636-1.357 1.725-.251-.014-.144-.208-.024-.22-.184-.364-.518-.085-.413.27-.852-.977 1.297-1.232 1.794-1.776zm.368 1.31c-.081.103.127-.16 0 0zm.216 13.947c.126-.162-.081.106 0 0zm-1.091-13.85c.48-.829.656 1.085 0 0zm-1.042.566c.278.066.479.234.51.621-.278-.066-.48-.236-.51-.62zm-.02 17.806c-.083.104.126-.162 0 0zm-.126-17.113c-.081.104.126-.16 0 0zm-.02 1.805c-.082.103.127-.16 0 0zm-.765 23.071l-.05-.443.438-.049.049.444-.437.048zm.253-9.719c.127-.16-.082.105 0 0zm-.513-16.62c-.282-.024-.271-.418-.05-.444.327.063 0 .198.05.443zm-.322 27.08c-.61-.688.793.458 0 0zm-.78-3.068c-.017-.976 1.292.093 0 0zm.15 3.363c-.67-.61.73.534 0 0zm.507-1.406c-.081.101.128-.162 0 0zm-1.184 3.287c-.081.103.126-.165 0 0zm-.511-.62c-1.22-.462.879.33 0 0zm-.687-4.209c.213-.016.2.253.268.421-.211.02-.2-.253-.268-.42zm.105 4.95c-.081.103.126-.165 0 0zm-.1-.895c-.08.103.128-.16 0 0zm-.14-27.253c.128-.163-.08.105 0 0zm.037 6.308c-.083.103.126-.164 0 0zm.315.864c.127-.16-.081.105 0 0zm-.228-6.059c-.081.103.127-.162 0 0zm-.878 28.043c.12-.669.3-.287.85-.32-.118.67-.3.288-.85.32zm.548-7.045c-.244.394.042 1.654-.774.986.493-.136.099-.998.774-.986zm-.631.296c-.214.015-.2-.254-.266-.423.21-.018.198.254.266.423zm.12-.917c-.598.681.52-.744 0 0zm.38-20.552c-.082.103.126-.16 0 0zm-.79 22.851c.128-.162-.08.104 0 0zm-.295 2.423c.213-.017.2.253.269.421-.213.017-.2-.253-.27-.42zm-.148-22.43c-.081.103.127-.162 0 0zm-.208-1.417c.02.03.033.044.06.08.049.07.077.11.095.133l-.155-.213zm-.027 26.368c.126-.16-.081.105 0 0zm-.496-25.55c.128-.16-.08.103 0 0zm-.675 22.975c.213-.019.199.254.269.422-.214.02-.2-.254-.27-.422zm-1.806-11.43c-.083.102.128-.163 0 0zM39.354 9.083c-.76-.246.793-.648 0 0zm-.068 17.361c.328.062 0 .2.049.445-.282-.022-.27-.419-.05-.445zm.37 3.34c-.213.017-.2-.253-.268-.42.213-.018.2.254.268.42zm-.028-16.223c.128-.162-.081.103 0 0zm.56 15.036c1.089-.714-.785.515 0 0zm1.406-1.28c.028.886-.694-.093-.826.541-.806-.295.364-.619.826-.542zm-.75-12.763c-.08.103.128-.16 0 0zm.77 10.955c.128-.16-.081.104 0 0zm1.02-.788c-.452.72.397.924.704.374.294.253-.535 1.308-1.162 1.48.488-.29.02-1.833-.1-.89-.692-.259.05-1.016.558-.964zm.918-1.68c-.212.02-.198-.253-.266-.418.213-.019.2.252.266.418zm-1.572 3.781c.128-.162-.08.104 0 0zm-.652 2.1c.128-.16-.081.103 0 0zM18.96 43.707c.303.122.815-.018 1.045.2.387.033.777.057 1.17.072.155-.28.396-.63.576-1.032 1.029.363.919-.612 1.745-.194-.287-.865.828-.118.314-1.162 1.053.354 1.13.81 1.897 1.144.063.79-.776-.394-.631.295-.26-.01-.23-.388-.292-.646-.845.413-1.55.758-1.382 1.505-.632.13-.728-.43-1.36-.3.07.213.194.328.31.402.46-.007.916-.03 1.369-.065.187-.12.329-.166.38-.029.13-.012.259-.027.388-.04-.003-.1-.014-.208-.02-.31l.875-.098c.002.112-.003.21-.012.3.322-.049.64-.108.958-.17-.016-.002-.03-.006-.047-.005.102-.69.4-.338.754-.15a21.948 21.948 0 0 0 9.84-5.182c-.003-.01-.005-.02-.01-.03.015 0 .026.002.038.003C41.25 34.193 44 28.418 44 22c0-3.974-1.06-7.698-2.902-10.916a.83.83 0 0 1-.113.748c-.258-.004-.227-.383-.292-.642-.191-.022-.197.11-.192.247-.556-.03-.11-.865.36-.718.025.021.045.045.066.068-.243-.409-.497-.81-.766-1.202a.868.868 0 0 1-.296.12c.158.307.402.504.729.594-.436.387-1.281.438-.944 1.458-1.183.394-.507-1.728-.853-1.708.37.146.685-.61 1.025-.942a22.32 22.32 0 0 0-.784-1.023c.23.703-.411.697-.556 1.096-.392-.01-.542-.329-.536-.842.25-.063.393.006.46.174.2-.16.176-.506.565-.513-.112-.136-.231-.266-.347-.399-.07.037-.107.1-.073.22-.306-.065-.305-.294-.156-.485-.116-.13-.236-.258-.356-.385l-.011.013-.018.022.005-.006.013-.016.01-.013a22.036 22.036 0 0 0-2.691-2.434c-.295.36-.743 1.031.069.95-.01.934-.898 1.155-1.357 1.724-.14-.512 1.13-2.196-.075-2.694.01-.327.198-.51.426-.66a21.794 21.794 0 0 0-1.884-1.158.65.65 0 0 0-.028.402c-.391.02-.541-.359-.425-.637A21.897 21.897 0 0 0 22 0c-.154 0-.306.008-.46.011a.704.704 0 0 1 .152.408c.19.023.196-.109.193-.244.83.225-1.197.942-.437.05-.218.358-.88.36-.775.984-.243-.029-.198-.426-.486-.397-.072-.583.789-.41.966-.79-.2.007-.398.017-.596.03-.002.015-.006.03-.007.045a.32.32 0 0 1-.124-.035c-.56.04-1.115.096-1.663.177.042.065.068.15.064.275-.361.15-.498.012-.586-.188-.314.054-.626.114-.936.181.039.26-.028.653.067.842.465-.768.976-.31 1.165.547-.701-.034-.725.487-1.505.393.339-.627-.11-1.197-.097-1.696-.317.074-.63.156-.941.244-.326.34-.64.69-.76 1.2-.22-.142-.375-.368-.51-.62-.377.096-.455.44-.338.938-.488-.598-1.747.05-2.622.29.167.213.529.176.512.618-.551-.17-1.26.541-1.554-.05-.345.423-.173.426-.704.34l-.051.032c.426.255.36.41.246 1.035-.405-.01-.331-.627-.614-.79-.137.092-.271.19-.406.288.055.107.097.233.123.378-.943-.543.145 1.447.729.594.07.395-.216.5-.121.915-.431-.495-.438-.326-.613.243-.006-.203-1.023-.059-.771-.766-.661.202-.46 1.11-1.188 1.256.289-.755.199-.89-.05-1.104C2.82 9.662 0 15.5 0 22c0 2.866.554 5.602 1.552 8.113.459-.146.907-.262 1.228-.327-.67.523-.007.357.123 1.111.487-.868 1.328-.059 1.628.722-.446-.028-.677.12-.607.52-.238-.124-.28-.49-.703-.375.118-.413.393-.077.654-.073-.031-.382-.225-.558-.511-.619-.524.22-.8.406-1.126.6.354.722.749 1.42 1.178 2.096h.027l-.012.023c3.388 5.324 8.998 9.091 15.528 9.995v-.079z" fill="#FFF"/><path d="M15.202 1.075c-.1.033-.199.067-.299.102.02.064.034.134.041.214.098-.125.183-.228.258-.316" fill="#66C3CD"/><path d="M17.195 22.306a2.35 2.35 0 1 0 0-4.7 2.35 2.35 0 0 0 0 4.7" fill="#2C3C4A"/><g transform="translate(12 15.326)"><mask id="b" fill="#fff"><use xlink:href="#a"/></mask><path d="M17.705 3.263H8.646v4.954H1.84V.674H0V13h1.84v-2.024h6.806V13H21V6.557a3.304 3.304 0 0 0-3.295-3.294" fill="#2C3C4A" mask="url(#b)"/></g></g></svg>