<svg width="35" height="35" viewBox="0 0 35 35" xmlns="http://www.w3.org/2000/svg" xmlns:xlink="http://www.w3.org/1999/xlink">
  <defs>
    <path id="a" d="M0 .25V17h18.321V.25z"/>
    <path id="c" d="M.374.519h1.054v3.463H.374V.52z"/>
  </defs>
  <g fill="none" fill-rule="evenodd">
    <path d="M15.155 32.256c.15-.548.616.488.25.688-.828-.04.108-.694-.25-.688zm.287-.571c-.17.013-.157-.2-.212-.334.17-.015.159.2.212.334zm.48-2.025c.075.381-.079.58-.462.59l-.06-.532.523-.058zM15.845.32c-.708-.129.665-.28 0 0zm-.056 1.08c.102-.127-.064.084 0 0zm.114-.55c-.532-.486.584.424 0 0zm.027 32.036c.17-.014.157.203.211.335-.169.015-.16-.2-.211-.335zm.831 1.162c-.17.24-.112.382.214.337-.254.893-1.11.053-1.43-.202.118-.457.694.171 1.216-.135zm-.406-.49c-.066.081.1-.13 0 0zm.075-.907c.102-.129-.064.082 0 0zm.366-30.105c-.065.08.1-.13 0 0zm.195 30.402c.1-.128-.064.083 0 0zm-1.525.527c.1-.128-.064.084 0 0zm-.755-.454c-.725-.367.548-.321 0 0zm-.327.215c.101-.128-.063.082 0 0zm-.06-30.776c-.064.082.1-.13 0 0zm-.044 22.612c-.065.082.103-.129 0 0zm.113-2.164c-.064.082.1-.128 0 0zm.2 9.05c-.707-.129.665-.28 0 0zM12.835 1.727c-.587-.284.009-.944.23-1.1.426.154-.037.92-.23 1.1zm-.27.746c.393.542-.59-.814 0 0zM11.56 1.331c.065-.083-.101.128 0 0zm-.536 31.74l-.04-.354.348-.038.04.354-.348.038zm.25-29.557c-.17.014-.16-.202-.212-.334.168-.015.158.202.211.334zm-.621 27.806c-.064.08.102-.13 0 0zm-.348.038c-.064.082.102-.13 0 0zM9.012 3.763c-.206-.004-.182-.307-.231-.51.186-.172.439-.285.85-.273.353.716-.97.067-.619.783zm-.093.728c.1-.127-.066.084 0 0zm-.385 1.3c-.064.08.102-.13 0 0zm-.692 2.424c-.71-.13.663-.281 0 0zM7.65 9.672c.17-.014.158.2.213.334-.17.014-.16-.203-.213-.334zm-.292-1.045c-.6-.096-.195-.379-.078-.708.434-.022.117.594.078.708zM6.89 5.252c.617.369-.389.902 0 0zm-.56-.295c.193.022.156.338.385.315-.02.5-.543.071-.385-.315zm.179 3.944c-.065.082.1-.129 0 0zM6.37 27.9c.102-.128-.065.084 0 0zM6.042 5.528c.17-.015.158.2.213.333-.17.015-.16-.202-.213-.333zm.02 22.765c-.709-.13.665-.282 0 0zm-.29-1.043l-.01.012a.632.632 0 0 1 .01-.012zm-.058 1.081c.102-.128-.065.083 0 0zm.113-2.163c.261.052 0 .158.04.353-.223-.018-.215-.33-.04-.353zm.036-1.26c.102-.126-.064.084 0 0zm.06.53c.152.019.157-.084.153-.193.513.186-.484.63-.366-.141.17-.014.159.203.212.335zm-.03-15.752c-.708-.13.664-.281 0 0zM5.62 8.82c-.71-.127.665-.279 0 0zm-.27.748c.17-.013.159.202.214.336-.17.015-.16-.202-.213-.336zm-.083 17.918c-.473.541.415-.591 0 0zm-.484-1.202c.102-.128-.065.082 0 0zm-.366-.139c-.407.093.005-.526.114-.552.282-.062.278.462-.114.552zm-.58-.475l-.348.039c-.123-.367.21-.363.482-.412-.017.15-.154.197-.135.373zm-.21 1.28c-.067.084.1-.129 0 0zm-.678.254c.119-.173.144-.422.097-.728.3-.09.42.959-.097.728zm.653-3.657c.169-.014.159.202.213.334-.17.015-.16-.202-.213-.334zm.134-.374c-.17.014-.158-.203-.213-.334.17-.015.16.2.213.334zm-.431-13.02c.168-.013.159.2.214.335-.17.014-.16-.203-.214-.335zm.48-2.026c-.17.015-.16-.2-.214-.334.17-.013.16.2.213.334zm.668 16.76c-.027.246-.42.194-.675.253l-.059-.532c.46-.18.39.315.734.279zm-.49-13.552c.102-.13-.063.082 0 0zm.275 11.603c.1-.128-.065.084 0 0zm.059.533c-.065.082.1-.131 0 0zm.917-15.142c-.065.08.1-.128 0 0zm-2.981 17.16c.81.664-.812-.662 0 0zm.633-2.22c-.222-.02-.213-.333-.04-.353.263.05 0 .156.04.354zm-.387-.314c.101-.132-.063.08 0 0zm-1.137.843c-.065.082.1-.131 0 0zM17.126 34.19c-.065.08.1-.13 0 0zm.25-.925c.292-.07.482.252.522-.058.538-.02-.439 1.221-.31.393-.168.024-.11.231-.134.373-.435.02-.118-.594-.078-.708zm-.098-.885c.523-.264.453.23.734.276-.063.443-.868.19-.734-.276zm.432-24c-.066.08.1-.128 0 0zm-.03-7.366c-.604-.194.629-.517 0 0zm.445.844c.102-.128-.064.084 0 0zm.954 17.306c.1-.128-.065.083 0 0zm.272.866c-.065.082.1-.129 0 0zm.313 2.833c.1-.128-.064.084 0 0zm.726 10.606c-.066.081.1-.127 0 0zm.133-.373c-.065.083.101-.128 0 0zm.284-31.692c-.065.08.102-.129 0 0zm.102 32.008c.102-.128-.064.08 0 0zm.523-.058c-.534-.486.583.424 0 0zM21.4 8.328c-.066.083.102-.127 0 0zm.78-7.256c-.17.015-.16-.202-.214-.336.169-.013.16.202.214.336zm.544 1.731c.26.051 0 .16.039.355-.225-.018-.217-.332-.04-.355zm.102 16.842l-.118-.005c.06 0 .165.006.261.01-.042-.002-.086-.005-.143-.005zm.486 1.2c.101-.127-.064.084 0 0zm.377-6.135c-.065.082.1-.13 0 0zm.575-13.331c-.03.026-.11.088-.268.209-.338.262.174-.134.268-.21zm.486.665c-.066.082.1-.13 0 0zm.48 5.036c.763-.05-.113.865.602.65-.237.612-1.155-.658-1.564.174-.79-.55.832-.49.963-.824zm.896-2.143c-.29.098-.344-.101-.388-.314-.86.522.397-.802.388.314zm.197 3.387c-.17.012-.157-.204-.212-.337.17-.015.158.202.212.337zm.068-5.747c-.485-.546.631.365 0 0zm.137 1.239c.703.466-.46.658 0 0zm.082 2.322c.17-.011.159.203.212.335-.17.016-.158-.202-.212-.335zm.52-1.67c-.17.013-.16-.202-.213-.335.168-.014.157.202.213.336zm.51 4.604c-.01.206-.164.12-.175.02-.168.025-.111.232-.133.374-.178.468-.216-.921-.776-.632.085-.351.84.125 1.084.238zm-.255-2.3c.702.464-.463.654 0 0zm.153-.198c-.604-.194.627-.517 0 0zm.636-.61c-.222-.052-.382-.186-.406-.492.223.053.382.189.406.492zm1.08-1.373c-.17.454-.65.653-1.139.843.174-.446.486-.783 1.139-.843zm-.967-.788c.26.05 0 .155.04.353-.225-.019-.213-.332-.04-.353zm.598.65c.102-.128-.064.083 0 0zm-.055 1.081c-.475.543.414-.59 0 0zm-.25.924c-.064.082.102-.128 0 0zm.948.614c-.884.087-.978.45-1.545.35.168-.482 1.267-.42.731-1.337.437-.26.542.803.523-.059.631.147.553.556.291 1.046zm-.27.746c-.71-.13.665-.283 0 0zm1.197-.311c.324 1.016-1.22.506-1.08 1.373-.2-.011-.114-.166-.019-.176-.146-.289-.412-.067-.328.215-.678-.777 1.031-.98 1.427-1.412zm.292 1.043c-.064.082.101-.128 0 0zm.172 11.094c.1-.129-.064.084 0 0zm-.868-11.017c.382-.66.522.863 0 0zm-.828.45c.22.053.38.186.406.494-.222-.053-.383-.188-.406-.494zm-.016 14.164c-.066.083.1-.129 0 0zm-.1-13.613c-.065.083.1-.128 0 0zm-.017 1.436c-.065.082.102-.128 0 0zm-.608 18.352l-.039-.352.348-.04.039.354-.348.038zm.201-7.731c.101-.127-.065.083 0 0zm-.408-13.221c-.224-.019-.215-.332-.04-.353.26.05 0 .158.04.353zm-.256 21.54c-.484-.546.63.366 0 0zm-.62-2.439c-.014-.776 1.027.074 0 0zm.119 2.675c-.533-.486.581.425 0 0zm.403-1.118c-.064.08.102-.13 0 0zm-.942 2.614c-.064.082.1-.13 0 0zm-.406-.494c-.97-.366.7.264 0 0zm-.547-3.347c.17-.013.16.201.214.335-.168.015-.159-.201-.214-.335zm.084 3.938c-.065.082.1-.132 0 0zm-.079-.712c-.064.082.101-.128 0 0zM25.92 9.442c.1-.13-.065.084 0 0zm.028 5.018c-.066.082.1-.13 0 0zm.251.687c.101-.127-.064.084 0 0zm-.181-4.82c-.065.082.1-.128 0 0zm-.699 22.307c.096-.532.24-.228.677-.254-.094.532-.24.229-.677.254zm.436-5.604c-.194.314.034 1.316-.616.785.393-.108.08-.794.616-.785zm-.502.236c-.17.012-.158-.202-.211-.337.167-.014.157.202.211.337zm.096-.73c-.476.542.414-.591 0 0zm.302-16.348c-.065.082.1-.128 0 0zm-.628 18.177c.101-.129-.064.083 0 0zm-.235 1.928c.17-.014.16.2.214.334-.17.014-.16-.2-.214-.334zM24.67 12.45c-.064.081.101-.13 0 0zm-.165-1.128l.047.063.076.107-.123-.17zm-.022 20.975c.1-.128-.064.083 0 0zm-.394-20.324c.101-.127-.063.082 0 0zm-.537 18.276c.17-.015.158.202.214.335-.17.015-.16-.202-.214-.335zm-1.437-9.093c-.066.082.102-.13 0 0zm9.19-13.924c-.605-.196.63-.515 0 0zm-.055 13.81c.261.05 0 .158.04.354-.225-.017-.215-.333-.04-.354zm.294 2.657c-.169.013-.158-.201-.213-.335.17-.014.16.203.213.335zm-.022-12.905c.102-.129-.064.082 0 0zm.446 11.96c.866-.567-.625.41 0 0zm1.118-1.018c.022.705-.552-.074-.657.43-.641-.234.29-.492.657-.43zm-.596-10.152c-.064.082.101-.128 0 0zm.612 8.714c.102-.127-.064.083 0 0zm.811-.627c-.36.573.316.735.56.298.234.201-.425 1.04-.924 1.177.388-.231.017-1.458-.079-.709-.551-.205.04-.807.443-.766zm.73-1.336c-.168.016-.157-.201-.211-.332.17-.016.16.2.212.332zm-1.25 3.008c.102-.13-.063.082 0 0zm-.519 1.67c.102-.128-.064.082 0 0zm-17.792 11.76c.24.097.648-.014.831.158.308.028.618.047.93.059.124-.224.316-.502.459-.821.818.288.73-.487 1.388-.155-.228-.688.659-.094.25-.924.837.282.899.644 1.509.91.05.628-.618-.313-.502.235-.206-.008-.182-.309-.233-.514-.672.328-1.232.603-1.099 1.197-.503.103-.579-.342-1.082-.239.056.17.155.261.247.32.366-.005.729-.024 1.089-.052.149-.095.262-.132.303-.023l.308-.032c-.003-.08-.011-.165-.015-.247l.695-.077c.002.089-.002.166-.01.239.257-.04.51-.086.762-.136-.012-.001-.023-.004-.037-.004.081-.548.318-.268.6-.12a17.459 17.459 0 0 0 7.828-4.121l-.008-.024c.011 0 .02.002.03.003A17.452 17.452 0 0 0 35 17.507c0-3.16-.842-6.123-2.308-8.683a.66.66 0 0 1-.09.595c-.206-.003-.18-.305-.233-.51-.152-.018-.156.086-.152.196-.443-.025-.088-.688.287-.571.019.016.035.036.051.054a17.346 17.346 0 0 0-.609-.956.69.69 0 0 1-.235.095c.125.244.32.401.58.473-.347.307-1.02.348-.751 1.16-.941.313-.404-1.375-.679-1.36.295.117.545-.484.816-.749a18.41 18.41 0 0 0-.624-.813c.184.559-.327.554-.442.872-.312-.008-.432-.262-.427-.67.2-.05.313.005.367.138.158-.127.14-.402.449-.408-.09-.108-.184-.212-.276-.317-.055.03-.086.08-.059.175-.243-.052-.242-.234-.124-.386a14.66 14.66 0 0 0-.283-.306l-.009.01-.014.017.004-.004.01-.013.01-.01A17.528 17.528 0 0 0 28.116 3.6c-.235.286-.591.82.055.754-.007.744-.715.92-1.08 1.373-.111-.408.9-1.747-.06-2.143.01-.26.158-.407.34-.526a17.1 17.1 0 0 0-1.5-.92.517.517 0 0 0-.021.32c-.311.015-.43-.286-.338-.507A17.418 17.418 0 0 0 17.5.007c-.123 0-.243.007-.365.009a.56.56 0 0 1 .12.325c.152.018.156-.087.153-.195.66.18-.952.75-.347.04-.174.285-.7.286-.617.783-.193-.023-.157-.339-.386-.316-.058-.464.627-.326.768-.63-.159.007-.316.015-.474.026-.002.012-.005.023-.005.035a.254.254 0 0 1-.1-.027c-.445.031-.886.076-1.322.14.033.052.054.12.05.22-.286.118-.395.009-.465-.15-.25.043-.498.09-.745.144.031.206-.022.519.054.67.37-.612.776-.247.926.434-.557-.027-.576.388-1.197.313.27-.499-.087-.952-.077-1.35-.252.06-.501.125-.749.195-.259.27-.509.549-.603.955-.176-.113-.3-.293-.407-.494-.3.077-.362.35-.269.747-.388-.476-1.39.04-2.085.23.132.17.42.14.407.492-.438-.136-1.002.43-1.236-.04-.275.337-.138.339-.56.27-.013.01-.027.017-.04.026.338.203.286.326.195.823-.322-.008-.263-.499-.489-.629-.108.074-.215.152-.322.23.043.085.077.185.097.3-.75-.431.116 1.152.58.473.056.314-.172.397-.096.728-.343-.394-.348-.26-.488.193-.004-.161-.813-.047-.613-.61-.526.162-.365.884-.945 1 .23-.6.158-.709-.04-.878A17.452 17.452 0 0 0 0 17.507c0 2.28.44 4.456 1.234 6.454.366-.116.722-.209.977-.26-.533.416-.005.284.098.883.388-.69 1.056-.047 1.295.575-.355-.023-.538.095-.483.413-.189-.098-.222-.39-.559-.298.094-.328.313-.061.52-.058-.024-.304-.179-.444-.406-.492-.417.175-.637.323-.896.476.282.575.596 1.13.937 1.668h.022l-.01.018c2.695 4.235 7.158 7.232 12.352 7.951v-.063z" fill="#FFF"/>
    <g transform="translate(8 10)">
      <mask id="b" fill="#fff">
        <use xlink:href="#a"/>
      </mask>
      <path d="M14.74 10.626H3.683a.82.82 0 1 1 0-1.64H14.74a.82.82 0 0 1 0 1.64m-4.715 3.143H3.682a.82.82 0 1 1 0-1.64h6.344a.82.82 0 1 1 0 1.64M3.639 5.842h11.059a.82.82 0 1 1 0 1.64H3.638a.82.82 0 1 1 0-1.64M16.61.25h-1.147v1.238a1.587 1.587 0 1 1-3.174 0V.25H6.033v1.238a1.588 1.588 0 0 1-3.174 0V.25H1.712C.767.25 0 1.017 0 1.962v13.326C0 16.233.767 17 1.712 17H16.61c.945 0 1.712-.767 1.712-1.712V1.962c0-.945-.767-1.712-1.712-1.712" fill="#2C3C4A" mask="url(#b)"/>
    </g>
    <path d="M12.428 11.982a.526.526 0 0 1-.527-.527v-2.41a.526.526 0 1 1 1.054 0v2.41a.527.527 0 0 1-.527.527" fill="#2C3C4A"/>
    <g transform="translate(21 8)">
      <mask id="d" fill="#fff">
        <use xlink:href="#c"/>
      </mask>
      <path d="M.901 3.982a.527.527 0 0 1-.527-.527v-2.41a.527.527 0 0 1 1.054 0v2.41a.527.527 0 0 1-.527.527" fill="#2C3C4A" mask="url(#d)"/>
    </g>
  </g>
</svg>
