<svg width="35" height="36" viewBox="0 0 35 36" xmlns="http://www.w3.org/2000/svg" xmlns:xlink="http://www.w3.org/1999/xlink"><title>Icon - Trip extension</title><defs><path id="a" d="M17.5 35.2H35V.007H0V35.2z"/></defs><g fill="none" fill-rule="evenodd"><g transform="translate(0 .793)"><mask id="b" fill="#fff"><use xlink:href="#a"/></mask><path d="M15.155 32.44c.15-.551.616.491.25.692-.827-.04.107-.698-.25-.692zm.287-.574c-.17.014-.157-.202-.212-.336.17-.014.159.201.212.336zm.48-2.036c.075.383-.079.582-.462.593l-.059-.535.521-.058zM15.843.322c-.708-.13.666-.283 0 0zm-.055 1.086c.102-.128-.064.084 0 0zm.114-.553c-.531-.49.584.427 0 0zm.026 32.22c.17-.015.158.203.212.335-.169.016-.16-.201-.212-.336zm.832 1.168c-.17.242-.112.383.214.339-.254.898-1.11.053-1.43-.204.118-.46.695.172 1.216-.135zm-.407-.494c-.064.082.101-.13 0 0zm.076-.911c.102-.13-.064.083 0 0zm.366-30.278c-.065.08.1-.13 0 0zm.194 30.576c.101-.129-.063.083 0 0zm-1.524.53c.1-.128-.065.084 0 0zm-.755-.456c-.725-.37.548-.324 0 0zm-.327.216c.102-.128-.064.084 0 0zm-.06-30.952c-.064.083.101-.13 0 0zm-.044 22.741c-.065.083.102-.13 0 0zm.113-2.176c-.065.083.1-.13 0 0zm.2 9.102c-.707-.13.665-.283 0 0zM12.835 1.737c-.587-.286.009-.95.23-1.106.426.155-.037.925-.23 1.106zm-.27.75c.393.545-.591-.818 0 0zm-1.006-1.149c.066-.082-.1.13 0 0zm-.535 31.922l-.04-.356.348-.038.04.356-.348.038zm.249-29.726c-.17.015-.159-.203-.212-.336.17-.015.158.204.212.336zm-.62 27.965c-.064.081.102-.13 0 0zm-.348.04c-.065.08.102-.132 0 0zM9.013 3.784c-.207-.005-.183-.309-.232-.514.186-.173.44-.286.85-.274.352.72-.97.068-.618.788zm-.095.732c.101-.128-.065.084 0 0zm-.384 1.306c-.065.082.102-.13 0 0zM7.84 8.262c-.709-.13.664-.283 0 0zm-.19 1.465c.17-.014.158.202.212.336-.168.015-.159-.204-.212-.336zm-.292-1.05c-.6-.097-.195-.382-.078-.713.434-.02.117.598.078.713zM6.89 5.282c.617.37-.389.907 0 0zm-.56-.296c.193.022.156.34.385.316-.019.504-.543.072-.385-.316zm.178 3.966c-.064.082.101-.13 0 0zM6.37 28.058c.102-.128-.064.084 0 0zM6.042 5.56c.17-.015.159.203.213.336-.17.015-.16-.203-.213-.336zm.021 22.895c-.71-.13.664-.283 0 0zm-.291-1.048l-.01.012c.02-.026.08-.105.01-.012zm-.058 1.088c.102-.13-.065.082 0 0zm.114-2.176c.26.052-.001.159.039.356-.223-.02-.215-.333-.04-.356zm.035-1.267c.102-.128-.064.083 0 0zm.06.533c.151.018.157-.086.153-.195.514.187-.484.634-.366-.142.17-.013.159.205.212.337zm-.03-15.842c-.708-.13.663-.284 0 0zM5.62 8.87c-.709-.128.664-.28 0 0zm-.269.752c.17-.013.158.203.213.337-.17.015-.16-.203-.213-.337zm-.084 18.02c-.474.544.416-.595 0 0zm-.484-1.208c.102-.13-.065.082 0 0zm-.367-.14c-.406.092.006-.53.116-.556.281-.062.276.465-.116.556zm-.58-.478l-.347.038c-.123-.368.21-.364.482-.413-.018.15-.154.197-.135.375zm-.21 1.287c-.066.084.1-.13 0 0zm-.676.256c.117-.175.143-.425.096-.733.3-.09.419.964-.097.733zm.652-3.678c.168-.015.159.202.212.335-.17.015-.158-.203-.212-.335zm.134-.376c-.17.013-.159-.205-.213-.337.17-.014.16.202.213.337zm-.43-13.095c.168-.013.158.203.213.337-.17.014-.16-.205-.214-.337zm.478-2.038c-.17.015-.158-.2-.213-.335.17-.014.16.202.213.335zm.67 16.856c-.028.248-.42.195-.676.255l-.058-.534c.458-.182.388.315.734.279zm-.491-13.63c.102-.128-.063.083 0 0zm.275 11.67c.099-.129-.064.084 0 0zm.059.536c-.064.082.099-.131 0 0zm.916-15.229c-.064.082.101-.129 0 0zm-2.98 17.26c.811.667-.812-.667 0 0zm.633-2.233c-.222-.021-.213-.336-.04-.356.264.05 0 .157.04.356zm-.387-.317c.101-.132-.063.082 0 0zm-1.137.848c-.065.082.1-.132 0 0zm15.784 10.451c-.064.082.1-.13 0 0zm.25-.93c.293-.07.483.253.522-.058.538-.02-.439 1.228-.309.395-.169.024-.111.232-.135.375-.434.02-.118-.597-.078-.712zm-.099-.89c.524-.266.454.232.735.278-.063.445-.868.19-.735-.278zm.432-24.137c-.064.081.101-.13 0 0zm-.03-7.409c-.603-.195.63-.519 0 0zm.446.85c.102-.129-.064.084 0 0zm.954 17.405c.1-.13-.064.083 0 0zm.271.87c-.064.083.101-.129 0 0zm.314 2.85c.1-.129-.064.084 0 0zm.725 10.666c-.064.082.101-.128 0 0zm.134-.374c-.066.082.101-.13 0 0zm.284-31.874c-.065.081.101-.13 0 0zm.102 32.19c.102-.127-.064.082 0 0zm.523-.058c-.534-.489.582.427 0 0zm-.034-25.167c-.065.083.103-.127 0 0zm.782-7.298c-.17.015-.16-.204-.215-.338.17-.012.16.203.215.338zm.543 1.741c.26.052 0 .161.039.357-.225-.018-.216-.334-.04-.357zm.103 16.938l-.12-.005c.06 0 .166.006.262.01l-.142-.005zm.486 1.208c.1-.128-.065.084 0 0zm.377-6.171c-.066.082.099-.132 0 0zm.574-13.407c-.03.026-.11.088-.267.21-.34.264.173-.135.267-.21zm.486.669c-.065.082.1-.132 0 0zm.481 5.065c.762-.051-.114.87.6.654-.235.615-1.153-.662-1.563.174-.79-.552.831-.492.963-.828zm.894-2.155c-.29.099-.343-.103-.386-.316-.861.524.397-.808.386.316zm.198 3.405c-.17.012-.157-.205-.212-.338.17-.015.158.203.212.338zm.068-5.779c-.485-.55.632.366 0 0zm.137 1.246c.703.468-.46.661 0 0zm.082 2.335c.17-.011.159.205.212.337-.17.016-.158-.203-.212-.337zm.52-1.678c-.17.011-.16-.205-.214-.337.17-.016.158.203.215.337zm.51 4.629c-.011.207-.164.12-.175.02-.169.025-.11.233-.134.376-.178.47-.215-.926-.775-.635.085-.354.84.125 1.084.239zm-.255-2.314c.701.468-.463.658 0 0zm.153-.198c-.604-.195.628-.52 0 0zm.636-.613c-.222-.053-.382-.187-.406-.496.223.055.383.19.406.496zm1.08-1.381c-.17.456-.65.656-1.139.847.175-.449.487-.787 1.139-.847zm-.967-.793c.26.05 0 .156.04.355-.225-.02-.214-.334-.04-.355zm.599.653c.101-.128-.065.084 0 0zm-.056 1.088c-.475.546.414-.593 0 0zm-.25.93c-.064.082.101-.13 0 0zm.948.616c-.884.088-.978.453-1.545.353.168-.485 1.267-.423.73-1.346.438-.26.543.808.524-.057.63.146.553.558.291 1.05zm-.27.75c-.71-.13.665-.284 0 0zm1.197-.312c.324 1.021-1.22.51-1.08 1.381-.2-.012-.114-.167-.02-.177-.145-.29-.411-.068-.327.216-.678-.78 1.032-.985 1.427-1.42zm.293 1.05c-.065.08.1-.13 0 0zm.171 11.156c.1-.13-.064.085 0 0zm-.868-11.08c.382-.663.522.868 0 0zm-.828.453c.22.053.38.187.405.497-.22-.053-.382-.188-.405-.497zm-.015 14.245c-.067.083.1-.13 0 0zm-.101-13.69c-.065.082.1-.13 0 0zm-.016 1.443c-.066.083.1-.129 0 0zm-.609 18.457l-.039-.354.348-.04.039.356-.348.038zm.201-7.775c.1-.128-.066.084 0 0zm-.408-13.296c-.225-.02-.215-.335-.04-.355.26.05 0 .158.04.355zm-.256 21.664c-.484-.55.631.366 0 0zm-.62-2.455c-.014-.78 1.028.075 0 0zm.118 2.69c-.533-.488.583.428 0 0zm.404-1.124c-.064.08.102-.13 0 0zm-.941 2.63c-.065.082.1-.132 0 0zm-.407-.497c-.97-.369.699.265 0 0zm-.546-3.367c.17-.012.16.203.213.338-.169.014-.16-.203-.213-.338zm.083 3.96c-.064.083.1-.132 0 0zm-.079-.715c-.064.083.101-.13 0 0zM25.92 9.496c.1-.13-.064.084 0 0zm.029 5.046c-.066.083.1-.13 0 0zm.25.692c.101-.128-.064.084 0 0zm-.181-4.848c-.065.083.1-.13 0 0zm-.699 22.436c.096-.536.24-.23.677-.257-.094.535-.239.23-.677.257zm.436-5.637c-.194.315.033 1.324-.616.789.392-.11.08-.799.616-.79zm-.502.237c-.17.012-.158-.204-.212-.339.169-.014.158.204.212.339zm.097-.734c-.477.545.413-.595 0 0zm.3-16.442c-.064.083.101-.128 0 0zm-.627 18.281c.102-.13-.065.084 0 0zm-.236 1.939c.17-.014.16.202.215.336-.17.014-.16-.202-.215-.336zm-.117-17.944c-.064.082.101-.13 0 0zm-.165-1.134c.016.023.026.036.048.063.039.056.06.088.075.107l-.123-.17zm-.022 21.094c.1-.128-.064.084 0 0zm-.394-20.44c.102-.128-.064.083 0 0zm-.538 18.381c.17-.016.158.203.215.337-.171.015-.16-.203-.215-.337zm-1.436-9.145c-.066.082.102-.13 0 0zm9.19-14.004c-.605-.196.63-.518 0 0zm-.055 13.89c.261.05 0 .16.04.355-.225-.017-.215-.335-.04-.356zm.294 2.671c-.17.014-.158-.202-.213-.337.17-.013.16.205.213.337zm-.022-12.978c.102-.13-.064.082 0 0zm.445 12.029c.867-.572-.624.412 0 0zm1.12-1.025c.02.71-.553-.074-.658.433-.64-.236.29-.495.657-.433zm-.597-10.21c-.064.083.102-.129 0 0zm.612 8.764c.102-.128-.065.083 0 0zm.812-.63c-.36.576.315.739.559.3.234.201-.426 1.045-.924 1.183.388-.233.017-1.466-.078-.713-.553-.206.038-.812.443-.77zm.73-1.343c-.169.015-.158-.204-.212-.336.17-.015.158.202.212.336zm-1.25 3.024c.101-.13-.063.084 0 0zm-.52 1.68c.103-.13-.064.082 0 0zM15.083 34.973c.241.097.647-.015.831.159.308.027.618.046.93.058.123-.224.316-.504.46-.825.818.29.73-.49 1.387-.155-.228-.692.658-.095.25-.93.837.283.898.648 1.509.915.05.632-.617-.315-.502.236-.206-.008-.182-.31-.233-.517-.672.33-1.231.607-1.099 1.204-.502.104-.579-.344-1.081-.24.055.17.154.264.246.322.366-.006.729-.024 1.088-.051.15-.096.263-.134.304-.024.103-.01.205-.021.308-.033-.002-.08-.011-.166-.015-.248l.695-.078c.001.09-.003.168-.01.24.257-.039.51-.085.763-.136-.013-.001-.024-.004-.039-.004.082-.552.32-.27.601-.12a17.43 17.43 0 0 0 7.828-4.145l-.008-.024c.011-.001.02.001.03.002A17.596 17.596 0 0 0 35 17.607c0-3.179-.842-6.158-2.308-8.733a.667.667 0 0 1-.09.599c-.205-.003-.18-.306-.232-.514-.152-.017-.157.087-.154.198-.441-.025-.087-.692.288-.575.02.017.035.036.052.056a17.654 17.654 0 0 0-.61-.963.695.695 0 0 1-.235.096c.126.246.32.403.58.475-.347.31-1.02.35-.751 1.167-.941.315-.403-1.382-.679-1.367.296.117.545-.488.816-.753a17.862 17.862 0 0 0-.625-.819c.185.563-.326.558-.442.878-.311-.009-.43-.263-.426-.674.2-.05.313.005.367.14.158-.13.14-.406.449-.412-.09-.108-.184-.212-.276-.319-.056.03-.085.08-.058.177-.244-.053-.243-.236-.124-.389-.093-.104-.189-.205-.284-.308l-.008.01-.015.018.004-.005.01-.012.01-.01a17.564 17.564 0 0 0-2.142-1.948c-.235.289-.59.825.055.76-.008.748-.714.924-1.08 1.38-.11-.41.899-1.758-.06-2.156.01-.262.158-.409.34-.529a17.44 17.44 0 0 0-1.499-.925.522.522 0 0 0-.022.321c-.311.016-.43-.287-.338-.51A17.34 17.34 0 0 0 17.5.008c-.122 0-.243.007-.365.01.064.077.108.18.12.325.151.019.156-.087.154-.195.66.18-.952.754-.348.04-.173.287-.7.287-.616.788-.195-.024-.158-.341-.388-.318-.056-.467.628-.328.769-.633a23.13 23.13 0 0 0-.474.025l-.005.036a.261.261 0 0 1-.1-.028c-.445.032-.887.077-1.322.141a.37.37 0 0 1 .05.22c-.287.12-.396.01-.465-.15-.25.043-.498.091-.745.145.03.208-.022.522.054.673.369-.614.776-.248.926.438-.558-.026-.577.39-1.197.314.27-.5-.086-.957-.078-1.356-.251.059-.5.124-.748.195-.259.272-.51.552-.603.96-.176-.114-.3-.295-.407-.497-.3.078-.361.353-.27.751-.387-.478-1.388.04-2.085.233.134.17.422.14.408.494-.438-.137-1.002.433-1.236-.04-.275.338-.138.34-.56.272a1.134 1.134 0 0 1-.04.025c.338.204.286.328.195.828-.322-.008-.264-.501-.488-.633-.11.076-.217.154-.323.232.044.085.077.186.098.302-.751-.434.114 1.158.58.475.055.316-.172.4-.097.732-.343-.395-.349-.26-.488.195-.004-.163-.813-.048-.613-.613-.525.161-.365.888-.945 1.005.23-.604.159-.713-.04-.884A17.598 17.598 0 0 0 0 17.607c0 2.294.44 4.482 1.235 6.49.365-.116.72-.209.976-.261-.533.418-.005.286.098.889.387-.695 1.056-.047 1.295.577-.354-.022-.539.096-.482.416-.19-.099-.223-.392-.56-.3.093-.33.313-.061.52-.058-.024-.306-.178-.446-.406-.495-.417.176-.636.325-.896.479.282.578.596 1.137.937 1.678h.022c-.004.005-.006.012-.01.018 2.695 4.26 7.158 7.273 12.352 7.996l.001-.063z" fill="#FFF" mask="url(#b)"/></g><path d="M12.093 1.66c-.08.026-.16.054-.238.081a.858.858 0 0 1 .033.172c.078-.1.145-.183.205-.252" fill="#66C3CD"/><path d="M19.973 19.432c-1.363 1.37-3.582 1.37-4.965 0-1.363-1.37-1.363-3.603 0-4.993 1.363-1.39 3.582-1.371 4.965 0 1.382 1.37 1.382 3.602 0 4.993m2.492-7.48a6.988 6.988 0 0 0-9.93 0c-2.744 2.761-2.744 7.225 0 9.966l4.965 4.994 4.965-4.994c2.744-2.76 2.744-7.225 0-9.966" fill="#2C3C4A"/></g></svg>