<svg width="35" height="36" viewBox="0 0 35 36" xmlns="http://www.w3.org/2000/svg"><title>Icon - Flight</title><g fill="none" fill-rule="evenodd"><path d="M15.155 33.233c.15-.551.616.491.25.692-.828-.04.108-.698-.25-.692zm.287-.574c-.17.013-.157-.202-.212-.336.17-.015.159.201.212.336zm.48-2.036c.075.383-.079.582-.462.593l-.06-.535.523-.058zm-.078-29.508c-.708-.13.665-.283 0 0zM15.788 2.2c.102-.128-.064.084 0 0zm.114-.554c-.532-.488.584.428 0 0zm.027 32.22c.17-.014.157.204.211.336-.169.016-.16-.201-.211-.336zm.831 1.168c-.17.243-.112.384.214.34-.254.897-1.11.053-1.43-.204.118-.46.694.172 1.216-.136zm-.406-.493c-.066.082.1-.13 0 0zm.075-.911c.102-.13-.064.082 0 0zm.366-30.278c-.065.08.1-.13 0 0zm.195 30.576c.1-.129-.064.083 0 0zm-1.525.53c.1-.128-.064.084 0 0zm-.755-.456c-.725-.37.548-.324 0 0zm-.327.216c.101-.128-.063.083 0 0zm-.06-30.952c-.064.083.1-.13 0 0zm-.044 22.741c-.065.083.103-.13 0 0zm.113-2.176c-.064.083.1-.13 0 0zm.2 9.102c-.707-.13.665-.283 0 0zM12.835 2.53c-.587-.286.009-.95.23-1.106.426.155-.037.925-.23 1.106zm-.27.75c.393.545-.59-.818 0 0zM11.56 2.131c.065-.083-.101.13 0 0zm-.536 31.922l-.04-.356.348-.038.04.356-.348.038zm.25-29.726c-.17.014-.16-.203-.212-.336.168-.015.158.204.211.336zm-.621 27.965c-.064.081.102-.13 0 0zm-.348.039c-.064.081.102-.13 0 0zM9.012 4.578c-.206-.005-.182-.309-.231-.514.186-.173.439-.286.85-.274.353.72-.97.068-.619.788zm-.093.732c.1-.128-.066.084 0 0zm-.385 1.306c-.064.082.102-.13 0 0zm-.692 2.439c-.71-.13.663-.283 0 0zM7.65 10.52c.17-.014.158.202.213.336-.17.014-.16-.204-.213-.336zM7.359 9.47c-.6-.096-.195-.38-.078-.712.434-.022.117.598.078.712zm-.468-3.394c.617.37-.389.907 0 0zm-.56-.296c.193.021.156.34.385.316-.02.504-.543.072-.385-.316zm.179 3.966c-.065.082.1-.13 0 0zm-.14 19.106c.102-.128-.065.084 0 0zM6.042 6.352c.17-.015.158.203.213.335-.17.016-.16-.203-.213-.335zm.02 22.895c-.709-.13.665-.283 0 0zm-.29-1.048l-.01.012c.02-.026.08-.105.01-.012zm-.058 1.087c.102-.129-.065.083 0 0zm.113-2.175c.261.052 0 .159.04.355-.223-.019-.215-.333-.04-.355zm.036-1.268c.102-.127-.064.084 0 0zm.06.534c.152.018.157-.086.153-.195.513.187-.484.634-.366-.142.17-.013.159.205.212.337zm-.03-15.842c-.708-.13.664-.284 0 0zm-.272-.872c-.71-.128.665-.281 0 0zm-.27.752c.17-.013.159.203.214.337-.17.015-.16-.203-.213-.337zm-.083 18.02c-.473.544.415-.595 0 0zm-.484-1.208c.102-.13-.065.082 0 0zm-.366-.14c-.407.092.005-.53.114-.556.282-.062.278.465-.114.556zm-.58-.478l-.348.038c-.123-.368.21-.364.482-.413-.017.15-.154.197-.135.375zm-.21 1.287c-.067.084.1-.13 0 0zm-.678.255c.119-.174.144-.424.097-.732.3-.09.42.964-.097.732zm.653-3.677c.169-.015.159.202.213.335-.17.015-.16-.203-.213-.335zm.134-.376c-.17.013-.158-.205-.213-.337.17-.014.16.202.213.337zm-.431-13.095c.168-.013.159.202.214.337-.17.014-.16-.205-.214-.337zm.48-2.038c-.17.015-.16-.2-.214-.335.17-.014.16.201.213.335zm.668 16.856c-.027.248-.42.195-.675.254l-.059-.534c.46-.18.39.316.734.28zm-.49-13.63c.102-.13-.063.083 0 0zm.275 11.67c.1-.129-.065.084 0 0zm.059.536c-.065.082.1-.132 0 0zm.917-15.229c-.065.082.1-.129 0 0zm-2.981 17.26c.81.667-.812-.667 0 0zm.633-2.233c-.222-.021-.213-.336-.04-.356.263.05 0 .156.04.356zm-.387-.317c.101-.132-.063.081 0 0zm-1.137.848c-.065.082.1-.132 0 0zm15.784 10.451c-.065.08.1-.13 0 0zm.25-.93c.292-.07.482.253.522-.059.538-.019-.439 1.229-.31.396-.168.024-.11.232-.134.375-.435.02-.118-.597-.078-.712zm-.098-.89c.523-.266.453.231.734.278-.063.445-.868.19-.734-.278zm.432-24.138c-.066.082.1-.128 0 0zm-.03-7.408c-.604-.195.629-.52 0 0zm.445.85c.102-.129-.064.084 0 0zm.954 17.405c.1-.13-.065.083 0 0zm.272.87c-.065.083.1-.13 0 0zm.313 2.85c.1-.129-.064.084 0 0zm.726 10.666c-.066.082.1-.128 0 0zm.133-.375c-.065.083.101-.129 0 0zm.284-31.873c-.065.081.102-.13 0 0zm.102 32.19c.102-.127-.064.081 0 0zm.523-.058c-.534-.489.583.427 0 0zM21.4 9.17c-.066.083.102-.128 0 0zm.78-7.298c-.17.015-.16-.204-.214-.338.169-.013.16.203.214.338zm.544 1.741c.26.051 0 .161.039.357-.225-.018-.217-.334-.04-.357zm.102 16.938l-.118-.005c.06 0 .165.006.261.01l-.143-.005zm.486 1.208c.101-.128-.064.084 0 0zm.377-6.171c-.065.082.1-.132 0 0zm.575-13.408c-.03.027-.11.09-.268.21-.338.265.174-.134.268-.21zm.486.67c-.066.082.1-.132 0 0zm.48 5.064c.763-.05-.113.87.602.654-.237.616-1.155-.661-1.564.175-.79-.552.832-.493.963-.829zm.896-2.154c-.29.098-.344-.103-.388-.316-.86.524.397-.808.388.316zm.197 3.405c-.17.012-.157-.205-.212-.338.17-.015.158.203.212.338zm.068-5.779c-.485-.55.631.366 0 0zm.137 1.246c.703.468-.46.661 0 0zm.082 2.335c.17-.011.159.204.212.337-.17.016-.158-.203-.212-.337zm.52-1.679c-.17.012-.16-.204-.213-.337.168-.015.157.203.213.337zm.51 4.63c-.01.207-.164.12-.175.02-.168.025-.111.233-.133.376-.178.47-.216-.926-.776-.636.085-.353.84.126 1.084.24zm-.255-2.314c.702.467-.463.658 0 0zm.153-.199c-.604-.194.627-.519 0 0zm.636-.613c-.222-.052-.382-.187-.406-.495.223.054.382.19.406.495zm1.08-1.38c-.17.456-.65.656-1.139.847.174-.449.486-.787 1.139-.847zm-.967-.793c.26.05 0 .156.04.355-.225-.02-.213-.334-.04-.355zm.598.653c.102-.128-.064.084 0 0zm-.055 1.088c-.475.545.414-.593 0 0zm-.25.93c-.064.082.102-.13 0 0zm.948.616c-.884.088-.978.452-1.545.352.168-.484 1.267-.422.731-1.345.437-.26.542.808.523-.058.631.147.553.559.291 1.051zm-.27.75c-.71-.13.665-.284 0 0zm1.197-.312c.324 1.021-1.22.51-1.08 1.38-.2-.01-.114-.166-.019-.176-.146-.29-.412-.068-.328.216-.678-.781 1.031-.985 1.427-1.42zm.292 1.048c-.064.083.101-.128 0 0zm.172 11.158c.1-.13-.064.085 0 0zm-.868-11.08c.382-.663.522.868 0 0zm-.828.453c.22.053.38.187.406.497-.222-.053-.383-.19-.406-.497zm-.016 14.245c-.066.083.1-.13 0 0zm-.1-13.69c-.065.082.1-.13 0 0zm-.017 1.443c-.065.083.102-.129 0 0zm-.608 18.457l-.039-.354.348-.04.039.356-.348.038zm.201-7.775c.101-.128-.065.084 0 0zm-.408-13.297c-.224-.018-.215-.334-.04-.354.26.05 0 .158.04.354zm-.256 21.664c-.484-.55.63.367 0 0zm-.62-2.454c-.014-.78 1.027.075 0 0zm.119 2.69c-.533-.488.581.428 0 0zm.403-1.124c-.064.08.102-.13 0 0zm-.942 2.63c-.064.082.1-.132 0 0zm-.406-.497c-.97-.369.7.265 0 0zm-.547-3.367c.17-.012.16.203.214.337-.168.015-.159-.202-.214-.337zm.084 3.96c-.065.083.1-.132 0 0zm-.079-.716c-.064.083.101-.128 0 0zM25.92 10.29c.1-.13-.065.084 0 0zm.028 5.046c-.066.083.1-.13 0 0zm.251.692c.101-.128-.064.084 0 0zm-.181-4.848c-.065.083.1-.13 0 0zm-.699 22.435c.096-.535.24-.23.677-.256-.094.535-.24.23-.677.256zm.436-5.636c-.194.315.034 1.323-.616.789.393-.11.08-.799.616-.79zm-.502.237c-.17.012-.158-.204-.211-.339.167-.014.157.203.211.339zm.096-.734c-.476.545.414-.595 0 0zm.302-16.442c-.065.083.1-.128 0 0zm-.628 18.281c.101-.13-.064.083 0 0zm-.235 1.939c.17-.014.16.202.214.336-.17.014-.16-.202-.214-.336zm-.118-17.944c-.064.082.101-.13 0 0zm-.165-1.134l.047.063.076.107-.123-.17zm-.022 21.094c.1-.128-.064.084 0 0zm-.394-20.44c.101-.128-.063.083 0 0zm-.537 18.38c.17-.015.158.204.214.338-.17.015-.16-.203-.214-.338zm-1.437-9.144c-.066.082.102-.13 0 0zm9.19-14.004c-.605-.196.63-.518 0 0zm-.055 13.89c.261.049 0 .158.04.355-.225-.017-.215-.335-.04-.356zm.294 2.671c-.169.014-.158-.202-.213-.337.17-.013.16.204.213.337zm-.022-12.978c.102-.13-.064.082 0 0zm.446 12.029c.866-.572-.625.412 0 0zm1.118-1.025c.022.71-.552-.074-.657.433-.641-.236.29-.495.657-.433zm-.596-10.21c-.064.083.101-.129 0 0zm.612 8.764c.102-.128-.064.083 0 0zm.811-.63c-.36.576.316.739.56.299.234.202-.425 1.046-.924 1.184.388-.233.017-1.466-.079-.713-.551-.206.04-.812.443-.77zm.73-1.344c-.168.016-.157-.203-.211-.335.17-.015.16.202.212.335zm-1.25 3.025c.102-.13-.063.083 0 0zm-.519 1.68c.102-.13-.064.082 0 0zM15.082 35.766c.24.097.648-.015.831.159.308.027.618.046.93.058.124-.224.316-.504.459-.825.818.29.73-.49 1.388-.155-.228-.692.659-.095.25-.93.837.283.899.648 1.509.915.05.631-.618-.315-.502.236-.206-.008-.182-.31-.233-.517-.672.33-1.232.607-1.099 1.204-.503.104-.579-.344-1.082-.24.056.17.155.263.247.322.366-.006.729-.024 1.089-.052.149-.096.262-.133.303-.023.103-.01.205-.022.308-.033-.003-.08-.011-.166-.015-.248l.695-.078a2.04 2.04 0 0 1-.01.24c.257-.039.51-.086.762-.136-.012-.001-.023-.004-.037-.004.081-.552.318-.27.6-.12a17.427 17.427 0 0 0 7.828-4.145l-.008-.024c.011-.001.02.001.03.002A17.597 17.597 0 0 0 35 18.4c0-3.179-.842-6.158-2.308-8.733a.667.667 0 0 1-.09.599c-.206-.003-.18-.307-.233-.514-.152-.017-.156.087-.152.198-.443-.025-.088-.692.287-.575.019.017.035.036.051.055a17.459 17.459 0 0 0-.609-.962.688.688 0 0 1-.235.096c.125.246.32.403.58.475-.347.31-1.02.35-.751 1.167-.941.315-.404-1.383-.679-1.367.295.117.545-.488.816-.753a17.846 17.846 0 0 0-.624-.819c.184.563-.327.558-.442.877-.312-.008-.432-.263-.427-.673.2-.05.313.004.367.139.158-.128.14-.405.449-.41-.09-.11-.184-.213-.276-.32-.055.03-.086.08-.059.176-.243-.052-.242-.235-.124-.388a14.711 14.711 0 0 0-.283-.308l-.009.01c-.004.007-.01.013-.014.018l.004-.005.01-.012.01-.01a17.564 17.564 0 0 0-2.142-1.948c-.235.288-.591.825.055.76-.007.747-.715.924-1.08 1.38-.111-.41.9-1.758-.06-2.156.01-.262.158-.409.34-.529a17.319 17.319 0 0 0-1.5-.925.522.522 0 0 0-.021.321c-.311.016-.43-.287-.338-.51A17.338 17.338 0 0 0 17.5.8c-.123 0-.243.007-.365.009a.565.565 0 0 1 .12.326c.152.019.156-.087.153-.195.66.18-.952.754-.347.04-.174.287-.7.287-.617.787-.193-.023-.157-.34-.386-.317-.058-.467.627-.328.768-.633-.159.006-.316.014-.474.025-.002.012-.005.023-.005.036a.253.253 0 0 1-.1-.028 17.55 17.55 0 0 0-1.322.141c.033.052.054.12.05.22-.286.12-.395.01-.465-.15-.25.043-.498.091-.745.145.031.208-.022.522.054.673.37-.614.776-.248.926.438-.557-.027-.576.39-1.197.314.27-.501-.087-.957-.077-1.356-.252.059-.501.124-.749.195-.259.272-.509.552-.603.96-.176-.114-.3-.295-.407-.497-.3.078-.362.353-.269.751-.388-.478-1.39.04-2.085.232.132.17.42.141.407.495-.438-.137-1.002.432-1.236-.041-.275.339-.138.341-.56.273l-.04.025c.338.204.286.328.195.828-.322-.008-.263-.501-.489-.633-.108.075-.215.153-.322.232.043.085.077.186.097.302-.75-.434.116 1.158.58.475.056.316-.172.4-.096.732-.343-.396-.348-.26-.488.195-.004-.163-.813-.048-.613-.613-.526.161-.365.888-.945 1.005.23-.604.158-.713-.04-.884A17.596 17.596 0 0 0 0 18.4c0 2.293.44 4.482 1.234 6.49.366-.116.722-.209.977-.261-.533.418-.005.286.098.889.388-.695 1.056-.047 1.295.577-.355-.022-.538.096-.483.416-.189-.099-.222-.392-.559-.3.094-.33.313-.061.52-.058-.024-.306-.179-.446-.406-.495-.417.176-.637.325-.896.479.282.578.596 1.137.937 1.678h.022c-.004.005-.007.012-.01.018 2.695 4.26 7.158 7.273 12.352 7.996v-.063z" fill="#FFF"/><path d="M15.155 33.233c.15-.551.616.491.25.692-.828-.04.108-.698-.25-.692zm.287-.574c-.17.013-.157-.202-.212-.336.17-.015.159.201.212.336zm.48-2.036c.075.383-.079.582-.462.593l-.06-.535.523-.058zm-.078-29.508c-.708-.13.665-.283 0 0zM15.788 2.2c.102-.128-.064.084 0 0zm.114-.554c-.532-.488.584.428 0 0zm.027 32.22c.17-.014.157.204.211.336-.169.016-.16-.201-.211-.336zm.831 1.168c-.17.243-.112.384.214.34-.254.897-1.11.053-1.43-.204.118-.46.694.172 1.216-.136zm-.406-.493c-.066.082.1-.13 0 0zm.075-.911c.102-.13-.064.082 0 0zm.366-30.278c-.065.08.1-.13 0 0zm.195 30.576c.1-.129-.064.083 0 0zm-1.525.53c.1-.128-.064.084 0 0zm-.755-.456c-.725-.37.548-.324 0 0zm-.327.216c.101-.128-.063.083 0 0zm-.06-30.952c-.064.083.1-.13 0 0zm-.044 22.741c-.065.083.103-.13 0 0zm.113-2.176c-.064.083.1-.13 0 0zm.2 9.102c-.707-.13.665-.283 0 0zM12.835 2.53c-.587-.286.009-.95.23-1.106.426.155-.037.925-.23 1.106zm-.27.75c.393.545-.59-.818 0 0zM11.56 2.131c.065-.083-.101.13 0 0zm-.536 31.922l-.04-.356.348-.038.04.356-.348.038zm.25-29.726c-.17.014-.16-.203-.212-.336.168-.015.158.204.211.336zm-.621 27.965c-.064.081.102-.13 0 0zm-.348.039c-.064.081.102-.13 0 0zM9.012 4.578c-.206-.005-.182-.309-.231-.514.186-.173.439-.286.85-.274.353.72-.97.068-.619.788zm-.093.732c.1-.128-.066.084 0 0zm-.385 1.306c-.064.082.102-.13 0 0zm-.692 2.439c-.71-.13.663-.283 0 0zM7.65 10.52c.17-.014.158.202.213.336-.17.014-.16-.204-.213-.336zM7.359 9.47c-.6-.096-.195-.38-.078-.712.434-.022.117.598.078.712zm-.468-3.394c.617.37-.389.907 0 0zm-.56-.296c.193.021.156.34.385.316-.02.504-.543.072-.385-.316zm.179 3.966c-.065.082.1-.13 0 0zm-.14 19.106c.102-.128-.065.084 0 0zM6.042 6.352c.17-.015.158.203.213.335-.17.016-.16-.203-.213-.335zm.02 22.895c-.709-.13.665-.283 0 0zm-.29-1.048l-.01.012c.02-.026.08-.105.01-.012zm-.058 1.087c.102-.129-.065.083 0 0zm.113-2.175c.261.052 0 .159.04.355-.223-.019-.215-.333-.04-.355zm.036-1.268c.102-.127-.064.084 0 0zm.06.534c.152.018.157-.086.153-.195.513.187-.484.634-.366-.142.17-.013.159.205.212.337zm-.03-15.842c-.708-.13.664-.284 0 0zm-.272-.872c-.71-.128.665-.281 0 0zm-.27.752c.17-.013.159.203.214.337-.17.015-.16-.203-.213-.337zm-.083 18.02c-.473.544.415-.595 0 0zm-.484-1.208c.102-.13-.065.082 0 0zm-.366-.14c-.407.092.005-.53.114-.556.282-.062.278.465-.114.556zm-.58-.478l-.348.038c-.123-.368.21-.364.482-.413-.017.15-.154.197-.135.375zm-.21 1.287c-.067.084.1-.13 0 0zm-.678.255c.119-.174.144-.424.097-.732.3-.09.42.964-.097.732zm.653-3.677c.169-.015.159.202.213.335-.17.015-.16-.203-.213-.335zm.134-.376c-.17.013-.158-.205-.213-.337.17-.014.16.202.213.337zm-.431-13.095c.168-.013.159.202.214.337-.17.014-.16-.205-.214-.337zm.48-2.038c-.17.015-.16-.2-.214-.335.17-.014.16.201.213.335zm.668 16.856c-.027.248-.42.195-.675.254l-.059-.534c.46-.18.39.316.734.28zm-.49-13.63c.102-.13-.063.083 0 0zm.275 11.67c.1-.129-.065.084 0 0zm.059.536c-.065.082.1-.132 0 0zm.917-15.229c-.065.082.1-.129 0 0zm-2.981 17.26c.81.667-.812-.667 0 0zm.633-2.233c-.222-.021-.213-.336-.04-.356.263.05 0 .156.04.356zm-.387-.317c.101-.132-.063.081 0 0zm-1.137.848c-.065.082.1-.132 0 0zm15.784 10.451c-.065.08.1-.13 0 0zm.25-.93c.292-.07.482.253.522-.059.538-.019-.439 1.229-.31.396-.168.024-.11.232-.134.375-.435.02-.118-.597-.078-.712zm-.098-.89c.523-.266.453.231.734.278-.063.445-.868.19-.734-.278zm.432-24.138c-.066.082.1-.128 0 0zm-.03-7.408c-.604-.195.629-.52 0 0zm.445.85c.102-.129-.064.084 0 0zm.954 17.405c.1-.13-.065.083 0 0zm.272.87c-.065.083.1-.13 0 0zm.313 2.85c.1-.129-.064.084 0 0zm.726 10.666c-.066.082.1-.128 0 0zm.133-.375c-.065.083.101-.129 0 0zm.284-31.873c-.065.081.102-.13 0 0zm.102 32.19c.102-.127-.064.081 0 0zm.523-.058c-.534-.489.583.427 0 0zM21.4 9.17c-.066.083.102-.128 0 0zm.78-7.298c-.17.015-.16-.204-.214-.338.169-.013.16.203.214.338zm.544 1.741c.26.051 0 .161.039.357-.225-.018-.217-.334-.04-.357zm.102 16.938l-.118-.005c.06 0 .165.006.261.01l-.143-.005zm.486 1.208c.101-.128-.064.084 0 0zm.377-6.171c-.065.082.1-.132 0 0zm.575-13.408c-.03.027-.11.09-.268.21-.338.265.174-.134.268-.21zm.486.67c-.066.082.1-.132 0 0zm.48 5.064c.763-.05-.113.87.602.654-.237.616-1.155-.661-1.564.175-.79-.552.832-.493.963-.829zm.896-2.154c-.29.098-.344-.103-.388-.316-.86.524.397-.808.388.316zm.197 3.405c-.17.012-.157-.205-.212-.338.17-.015.158.203.212.338zm.068-5.779c-.485-.55.631.366 0 0zm.137 1.246c.703.468-.46.661 0 0zm.082 2.335c.17-.011.159.204.212.337-.17.016-.158-.203-.212-.337zm.52-1.679c-.17.012-.16-.204-.213-.337.168-.015.157.203.213.337zm.51 4.63c-.01.207-.164.12-.175.02-.168.025-.111.233-.133.376-.178.47-.216-.926-.776-.636.085-.353.84.126 1.084.24zm-.255-2.314c.702.467-.463.658 0 0zm.153-.199c-.604-.194.627-.519 0 0zm.636-.613c-.222-.052-.382-.187-.406-.495.223.054.382.19.406.495zm1.08-1.38c-.17.456-.65.656-1.139.847.174-.449.486-.787 1.139-.847zm-.967-.793c.26.05 0 .156.04.355-.225-.02-.213-.334-.04-.355zm.598.653c.102-.128-.064.084 0 0zm-.055 1.088c-.475.545.414-.593 0 0zm-.25.93c-.064.082.102-.13 0 0zm.948.616c-.884.088-.978.452-1.545.352.168-.484 1.267-.422.731-1.345.437-.26.542.808.523-.058.631.147.553.559.291 1.051zm-.27.75c-.71-.13.665-.284 0 0zm1.197-.312c.324 1.021-1.22.51-1.08 1.38-.2-.01-.114-.166-.019-.176-.146-.29-.412-.068-.328.216-.678-.781 1.031-.985 1.427-1.42zm.292 1.048c-.064.083.101-.128 0 0zm.172 11.158c.1-.13-.064.085 0 0zm-.868-11.08c.382-.663.522.868 0 0zm-.828.453c.22.053.38.187.406.497-.222-.053-.383-.19-.406-.497zm-.016 14.245c-.066.083.1-.13 0 0zm-.1-13.69c-.065.082.1-.13 0 0zm-.017 1.443c-.065.083.102-.129 0 0zm-.608 18.457l-.039-.354.348-.04.039.356-.348.038zm.201-7.775c.101-.128-.065.084 0 0zm-.408-13.297c-.224-.018-.215-.334-.04-.354.26.05 0 .158.04.354zm-.256 21.664c-.484-.55.63.367 0 0zm-.62-2.454c-.014-.78 1.027.075 0 0zm.119 2.69c-.533-.488.581.428 0 0zm.403-1.124c-.064.08.102-.13 0 0zm-.942 2.63c-.064.082.1-.132 0 0zm-.406-.497c-.97-.369.7.265 0 0zm-.547-3.367c.17-.012.16.203.214.337-.168.015-.159-.202-.214-.337zm.084 3.96c-.065.083.1-.132 0 0zm-.079-.716c-.064.083.101-.128 0 0zM25.92 10.29c.1-.13-.065.084 0 0zm.028 5.046c-.066.083.1-.13 0 0zm.251.692c.101-.128-.064.084 0 0zm-.181-4.848c-.065.083.1-.13 0 0zm-.699 22.435c.096-.535.24-.23.677-.256-.094.535-.24.23-.677.256zm.436-5.636c-.194.315.034 1.323-.616.789.393-.11.08-.799.616-.79zm-.502.237c-.17.012-.158-.204-.211-.339.167-.014.157.203.211.339zm.096-.734c-.476.545.414-.595 0 0zm.302-16.442c-.065.083.1-.128 0 0zm-.628 18.281c.101-.13-.064.083 0 0zm-.235 1.939c.17-.014.16.202.214.336-.17.014-.16-.202-.214-.336zm-.118-17.944c-.064.082.101-.13 0 0zm-.165-1.134l.047.063.076.107-.123-.17zm-.022 21.094c.1-.128-.064.084 0 0zm-.394-20.44c.101-.128-.063.083 0 0zm-.537 18.38c.17-.015.158.204.214.338-.17.015-.16-.203-.214-.338zm-1.437-9.144c-.066.082.102-.13 0 0zm9.19-14.004c-.605-.196.63-.518 0 0zm-.055 13.89c.261.049 0 .158.04.355-.225-.017-.215-.335-.04-.356zm.294 2.671c-.169.014-.158-.202-.213-.337.17-.013.16.204.213.337zm-.022-12.978c.102-.13-.064.082 0 0zm.446 12.029c.866-.572-.625.412 0 0zm1.118-1.025c.022.71-.552-.074-.657.433-.641-.236.29-.495.657-.433zm-.596-10.21c-.064.083.101-.129 0 0zm.612 8.764c.102-.128-.064.083 0 0zm.811-.63c-.36.576.316.739.56.299.234.202-.425 1.046-.924 1.184.388-.233.017-1.466-.079-.713-.551-.206.04-.812.443-.77zm.73-1.344c-.168.016-.157-.203-.211-.335.17-.015.16.202.212.335zm-1.25 3.025c.102-.13-.063.083 0 0zm-.519 1.68c.102-.13-.064.082 0 0zM15.082 35.766c.24.097.648-.015.831.159.308.027.618.046.93.058.124-.224.316-.504.459-.825.818.29.73-.49 1.388-.155-.228-.692.659-.095.25-.93.837.283.899.648 1.509.915.05.631-.618-.315-.502.236-.206-.008-.182-.31-.233-.517-.672.33-1.232.607-1.099 1.204-.503.104-.579-.344-1.082-.24.056.17.155.263.247.322.366-.006.729-.024 1.089-.052.149-.096.262-.133.303-.023.103-.01.205-.022.308-.033-.003-.08-.011-.166-.015-.248l.695-.078a2.04 2.04 0 0 1-.01.24c.257-.039.51-.086.762-.136-.012-.001-.023-.004-.037-.004.081-.552.318-.27.6-.12a17.427 17.427 0 0 0 7.828-4.145l-.008-.024c.011-.001.02.001.03.002A17.597 17.597 0 0 0 35 18.4c0-3.179-.842-6.158-2.308-8.733a.667.667 0 0 1-.09.599c-.206-.003-.18-.307-.233-.514-.152-.017-.156.087-.152.198-.443-.025-.088-.692.287-.575.019.017.035.036.051.055a17.459 17.459 0 0 0-.609-.962.688.688 0 0 1-.235.096c.125.246.32.403.58.475-.347.31-1.02.35-.751 1.167-.941.315-.404-1.383-.679-1.367.295.117.545-.488.816-.753a17.846 17.846 0 0 0-.624-.819c.184.563-.327.558-.442.877-.312-.008-.432-.263-.427-.673.2-.05.313.004.367.139.158-.128.14-.405.449-.41-.09-.11-.184-.213-.276-.32-.055.03-.086.08-.059.176-.243-.052-.242-.235-.124-.388a14.711 14.711 0 0 0-.283-.308l-.009.01c-.004.007-.01.013-.014.018l.004-.005.01-.012.01-.01a17.564 17.564 0 0 0-2.142-1.948c-.235.288-.591.825.055.76-.007.747-.715.924-1.08 1.38-.111-.41.9-1.758-.06-2.156.01-.262.158-.409.34-.529a17.319 17.319 0 0 0-1.5-.925.522.522 0 0 0-.021.321c-.311.016-.43-.287-.338-.51A17.338 17.338 0 0 0 17.5.8c-.123 0-.243.007-.365.009a.565.565 0 0 1 .12.326c.152.019.156-.087.153-.195.66.18-.952.754-.347.04-.174.287-.7.287-.617.787-.193-.023-.157-.34-.386-.317-.058-.467.627-.328.768-.633-.159.006-.316.014-.474.025-.002.012-.005.023-.005.036a.253.253 0 0 1-.1-.028 17.55 17.55 0 0 0-1.322.141c.033.052.054.12.05.22-.286.12-.395.01-.465-.15-.25.043-.498.091-.745.145.031.208-.022.522.054.673.37-.614.776-.248.926.438-.557-.027-.576.39-1.197.314.27-.501-.087-.957-.077-1.356-.252.059-.501.124-.749.195-.259.272-.509.552-.603.96-.176-.114-.3-.295-.407-.497-.3.078-.362.353-.269.751-.388-.478-1.39.04-2.085.232.132.17.42.141.407.495-.438-.137-1.002.432-1.236-.041-.275.339-.138.341-.56.273l-.04.025c.338.204.286.328.195.828-.322-.008-.263-.501-.489-.633-.108.075-.215.153-.322.232.043.085.077.186.097.302-.75-.434.116 1.158.58.475.056.316-.172.4-.096.732-.343-.396-.348-.26-.488.195-.004-.163-.813-.048-.613-.613-.526.161-.365.888-.945 1.005.23-.604.158-.713-.04-.884A17.596 17.596 0 0 0 0 18.4c0 2.293.44 4.482 1.234 6.49.366-.116.722-.209.977-.261-.533.418-.005.286.098.889.388-.695 1.056-.047 1.295.577-.355-.022-.538.096-.483.416-.189-.099-.222-.392-.559-.3.094-.33.313-.061.52-.058-.024-.306-.179-.446-.406-.495-.417.176-.637.325-.896.479.282.578.596 1.137.937 1.678h.022c-.004.005-.007.012-.01.018 2.695 4.26 7.158 7.273 12.352 7.996v-.063z" fill="#FFF"/><path d="M12.093 1.66l-.238.082a.807.807 0 0 1 .033.171c.077-.1.145-.182.205-.253" fill="#66C3CD"/><path d="M16.188 25.819h-2.109l2.576-5.3h-3.632l-2.11 2.12H9.862l1.053-4.243-1.053-4.242h1.053l2.109 2.12h3.632l-2.576-5.3h2.109l5.271 5.3h3.162c.583 0 1.082.21 1.492.622.414.416.618.914.618 1.5 0 .587-.204 1.085-.618 1.501-.41.413-.909.621-1.492.621H21.46l-5.271 5.3zm7.477-9.86c-.056.072.088-.115 0 0z" fill="#1D2E37"/></g></svg>