<?xml version="1.0" encoding="utf-8"?>
<!-- Generator: Adobe Illustrator 22.0.0, SVG Export Plug-In . SVG Version: 6.00 Build 0)  -->
<svg version="1.1" id="图层_1" xmlns="http://www.w3.org/2000/svg" xmlns:xlink="http://www.w3.org/1999/xlink" x="0px" y="0px"
	 viewBox="0 0 82 84" style="enable-background:new 0 0 82 84;" xml:space="preserve">
<style type="text/css">
	.st0{fill:none;stroke:#384B5D;stroke-width:0.6;}
	.st1{fill:#384B5D;}
</style>
<title>SEMI INDEPENDENT - ICON</title>
<desc>Created with Sketch.</desc>
<g id="Destination---China" transform="translate(-679.000000, -3577.000000)">
	<g id="SEMI-INDEPENDENT---ICON" transform="translate(680.000000, 3577.000000)">
		<path id="Stroke-4" class="st0" d="M9.6,26.8h10.3V15.1H9.6V26.8z M21.2,26.8h10.3V15.1H21.2V26.8z M8.3,28.1h24.5V13.8H8.3V28.1z
			"/>
		<path id="Fill-5" class="st1" d="M12.8,34.6c-1.1,0-1.9-0.9-1.9-2c0-1.1,0.9-2,1.9-2s1.9,0.9,1.9,2C14.8,33.8,13.9,34.6,12.8,34.6
			 M12.8,29.4c-1.8,0-3.2,1.5-3.2,3.3c0,1.8,1.4,3.3,3.2,3.3s3.2-1.5,3.2-3.3C16,30.9,14.6,29.4,12.8,29.4"/>
		<path id="Stroke-7" class="st0" d="M12.8,34.6c-1.1,0-1.9-0.9-1.9-2c0-1.1,0.9-2,1.9-2s1.9,0.9,1.9,2
			C14.8,33.8,13.9,34.6,12.8,34.6z M12.8,29.4c-1.8,0-3.2,1.5-3.2,3.3c0,1.8,1.4,3.3,3.2,3.3s3.2-1.5,3.2-3.3
			C16,30.9,14.6,29.4,12.8,29.4z"/>
		<path id="Fill-9" class="st1" d="M28.3,34.6c-1.1,0-1.9-0.9-1.9-2c0-1.1,0.9-2,1.9-2c1.1,0,1.9,0.9,1.9,2
			C30.2,33.8,29.4,34.6,28.3,34.6 M28.3,29.4c-1.8,0-3.2,1.5-3.2,3.3c0,1.8,1.5,3.3,3.2,3.3c1.8,0,3.2-1.5,3.2-3.3
			C31.5,30.9,30.1,29.4,28.3,29.4"/>
		<path id="Stroke-11" class="st0" d="M28.3,34.6c-1.1,0-1.9-0.9-1.9-2c0-1.1,0.9-2,1.9-2c1.1,0,1.9,0.9,1.9,2
			C30.2,33.8,29.4,34.6,28.3,34.6z M28.3,29.4c-1.8,0-3.2,1.5-3.2,3.3c0,1.8,1.5,3.3,3.2,3.3c1.8,0,3.2-1.5,3.2-3.3
			C31.5,30.9,30.1,29.4,28.3,29.4z"/>
		<polygon id="Fill-13" class="st1" points="17.3,33.3 23.8,33.3 23.8,32 17.3,32 		"/>
		<polygon id="Stroke-15" class="st0" points="17.3,33.3 23.8,33.3 23.8,32 17.3,32 		"/>
		<path id="Stroke-17" class="st0" d="M36,23.6h2.6v-6.5H36V23.6z M34.8,37.2H6.4V3.4h28.4L34.8,37.2L34.8,37.2z M28.9,41.1h3.9
			v-2.6h-3.9V41.1z M8.3,41.1h3.9v-2.6H8.3V41.1z M2.5,23.6h2.6v-6.5H2.5V23.6z M36,15.8V2.1h-31v13.6H1.2v9.1h3.9v13.6H7v3.3
			c0,0.4,0.3,0.6,0.6,0.6h5.2c0.4,0,0.6-0.3,0.6-0.6v-3.3h14.2v3.3c0,0.4,0.3,0.6,0.6,0.6h5.2c0.4,0,0.6-0.3,0.6-0.6v-3.3H36V24.9
			h3.9v-9.1H36z"/>
		<path id="Fill-18" class="st1" d="M64.8,79.5c-7.8,0-13.1-2.6-13.1-5.1c0-1.9,3.5-4.1,9-4.8c4.7,7.8,3.7,7.6,8.3,0
			c5.4,0.7,9,2.8,9,4.8C77.9,76.9,72.5,79.5,64.8,79.5 M52.7,47c0-6.7,5.4-12.2,12.1-12.2S76.9,40.3,76.9,47
			c0,5.8-9.1,20.7-12.1,25.5C61.7,67.7,52.7,52.8,52.7,47 M70,67.7c3.9-6.6,8.9-16,8.9-20.7c0-7.8-6.4-14.2-14.1-14.2
			c-7.8,0-14.1,6.4-14.1,14.2c0,4.7,5,14.1,8.9,20.8c-15.4,2.4-12.2,13.7,5.2,13.7C82.4,81.5,85.2,70.3,70,67.7"/>
		<path id="Fill-19" class="st1" d="M58.7,47c0-3.4,2.7-6.1,6-6.1c3.3,0,6.1,2.7,6.1,6.1c0,3.4-2.7,6.1-6.1,6.1
			C61.4,53.1,58.7,50.4,58.7,47 M72.8,47c0-4.5-3.6-8.1-8.1-8.1c-4.4,0-8.1,3.7-8.1,8.1c0,4.5,3.6,8.1,8.1,8.1
			C69.2,55.1,72.8,51.5,72.8,47"/>
		<path id="Fill-20" class="st1" d="M38.7,30.8c0,0-0.1,0-0.1,0c-0.8-0.1-1.7-0.2-2.7-0.2c-0.5,0-0.8-0.4-0.8-0.9
			c0-0.5,0.4-0.8,0.9-0.8h0c1.1,0,2.1,0.1,3,0.3c0.5,0.1,0.8,0.5,0.7,1C39.5,30.5,39.1,30.8,38.7,30.8 M43.6,33.4
			c-0.3,0-0.6-0.1-0.7-0.4c-0.4-0.6-1-1.1-1.8-1.5c-0.4-0.2-0.6-0.7-0.4-1.1c0.2-0.4,0.7-0.6,1.1-0.4c1.1,0.5,2,1.2,2.5,2.1
			c0.3,0.4,0.1,0.9-0.3,1.2C43.9,33.3,43.8,33.4,43.6,33.4 M42.8,38.6c-0.2,0-0.4-0.1-0.5-0.2c-0.4-0.3-0.4-0.8-0.1-1.2
			c0.7-0.8,1.1-1.5,1.2-2.1c0.1-0.5,0.5-0.8,1-0.7c0.5,0.1,0.8,0.5,0.7,1c-0.2,0.9-0.7,1.8-1.5,2.9C43.3,38.5,43.1,38.6,42.8,38.6
			 M38.7,42.7c-0.2,0-0.5-0.1-0.6-0.3c-0.3-0.4-0.3-0.9,0.1-1.2l0.5-0.4c0.5-0.5,1.1-1,1.6-1.5c0.3-0.3,0.9-0.3,1.2,0
			c0.3,0.3,0.3,0.9,0,1.2c-0.5,0.5-1.1,1-1.7,1.5l-0.5,0.4C39.2,42.6,38.9,42.7,38.7,42.7 M36.7,46.9c-0.1,0-0.2,0-0.2,0
			c-1.2-0.4-1.4-1.2-1.4-1.6c0-0.6,0.3-1.2,1-2c0.3-0.4,0.9-0.4,1.2-0.1c0.4,0.3,0.4,0.9,0.1,1.2c-0.3,0.4-0.5,0.6-0.5,0.8
			c0,0,0.1,0,0.2,0.1c0.5,0.1,0.7,0.6,0.6,1.1C37.4,46.6,37.1,46.9,36.7,46.9 M42.4,47.9c0,0-0.1,0-0.1,0l-2.8-0.5
			c-0.5-0.1-0.8-0.5-0.7-1c0.1-0.5,0.5-0.8,1-0.7l2.8,0.5c0.5,0.1,0.8,0.5,0.7,1C43.1,47.6,42.8,47.9,42.4,47.9 M48,48.9
			c-0.1,0-0.1,0-0.2,0C47,48.7,46,48.5,45,48.3c-0.5-0.1-0.8-0.5-0.7-1c0.1-0.5,0.5-0.8,1-0.7c1,0.2,1.9,0.3,2.8,0.5
			c0.5,0.1,0.8,0.5,0.7,1C48.7,48.6,48.4,48.9,48,48.9 M52.2,50c-0.1,0-0.1,0-0.2,0c-0.8-0.2-0.3-0.4-1.4-0.6
			c-0.5-0.1-0.8-0.5-0.7-1c0.1-0.5,0.5-0.8,1-0.7c1,0.2,0.5,0.4,1.4,0.6c0.5,0.1,0.4,0.6,0.3,1C52.6,49.7,52.6,50,52.2,50
			 M52.6,52.6C52.6,52.6,52.6,52.6,52.6,52.6C51.8,52.5,52.7,52.5,52.6,52.6c-0.1-0.1-0.6,0-1.4,0c-0.5,0-0.9-0.3-0.9-0.8
			c0-0.5,0.3-0.9,0.8-0.9c0.8,0-0.1-0.1,0.1-0.1v0c0,0,0.6,0,1.4,0.1c0.5,0,0.8,0.4,0.8,0.9C53.5,52.2,53.1,52.6,52.6,52.6
			 M45.5,53.1c-0.4,0-0.8-0.3-0.8-0.8c-0.1-0.5,0.3-0.9,0.7-1c1.1-0.1,2-0.2,2.9-0.3c0.5,0,0.9,0.3,0.9,0.8c0,0.5-0.3,0.9-0.8,0.9
			c-0.8,0.1-1.8,0.2-2.8,0.3C45.6,53.1,45.5,53.1,45.5,53.1 M39.8,53.9c-0.4,0-0.8-0.3-0.8-0.7c-0.1-0.5,0.2-0.9,0.7-1
			c1-0.2,1.9-0.3,2.8-0.5c0.5-0.1,0.9,0.3,1,0.7c0.1,0.5-0.2,0.9-0.7,1c-0.9,0.1-1.8,0.3-2.8,0.5C39.9,53.9,39.9,53.9,39.8,53.9
			 M34.2,55.1c-0.4,0-0.7-0.3-0.8-0.7c-0.1-0.5,0.2-0.9,0.6-1c1-0.2,1.9-0.4,2.8-0.6c0.5-0.1,0.9,0.2,1,0.7c0.1,0.5-0.2,0.9-0.7,1
			c-0.9,0.2-1.8,0.4-2.8,0.6C34.4,55.1,34.3,55.1,34.2,55.1 M28.7,56.7c-0.4,0-0.7-0.2-0.8-0.6c-0.1-0.5,0.1-0.9,0.6-1.1
			c0.9-0.3,1.9-0.6,2.8-0.8c0.5-0.1,0.9,0.1,1.1,0.6c0.1,0.5-0.1,0.9-0.6,1.1c-0.9,0.2-1.8,0.5-2.7,0.8
			C28.9,56.6,28.8,56.7,28.7,56.7 M23.3,58.5c-0.4,0-0.7-0.2-0.8-0.6c-0.2-0.4,0.1-0.9,0.5-1.1c0.9-0.3,1.8-0.7,2.7-1
			c0.4-0.1,0.9,0.1,1.1,0.5c0.1,0.5-0.1,0.9-0.5,1.1c-0.9,0.3-1.8,0.6-2.7,0.9C23.5,58.5,23.4,58.5,23.3,58.5 M18.1,60.7
			c-0.3,0-0.6-0.2-0.7-0.4c-0.2-0.4-0.1-0.9,0.3-1.2c0.5-0.3,1.1-0.6,1.8-0.9l0.9-0.4c0.4-0.2,0.9,0,1.1,0.5c0.2,0.4,0,0.9-0.5,1.1
			l-0.9,0.4c-0.6,0.3-1.2,0.5-1.6,0.8C18.3,60.7,18.2,60.7,18.1,60.7 M16.9,65.2c-0.2,0-0.4-0.1-0.6-0.2c-0.9-0.8-1.3-1.7-1.3-2.5
			c0-0.3,0.1-0.6,0.2-0.9c0.2-0.4,0.7-0.7,1.1-0.5c0.4,0.2,0.7,0.7,0.5,1.1c0,0.1-0.1,0.2-0.1,0.3c0,0.5,0.4,1,0.8,1.3
			c0.3,0.3,0.4,0.9,0,1.2C17.4,65.1,17.2,65.2,16.9,65.2 M21.9,68.1c-0.1,0-0.2,0-0.3-0.1c-1-0.4-1.9-0.9-2.7-1.3
			c-0.4-0.2-0.6-0.8-0.3-1.2c0.2-0.4,0.7-0.6,1.2-0.3c0.7,0.4,1.6,0.8,2.5,1.2c0.4,0.2,0.6,0.7,0.5,1.1
			C22.5,67.9,22.2,68.1,21.9,68.1 M27.3,70c-0.1,0-0.2,0-0.3,0c-0.9-0.3-1.9-0.6-2.7-0.9c-0.4-0.2-0.7-0.7-0.5-1.1
			c0.2-0.5,0.6-0.7,1.1-0.5c0.9,0.3,1.8,0.6,2.7,0.9c0.4,0.1,0.7,0.6,0.6,1.1C28,69.8,27.6,70,27.3,70 M32.8,71.6
			c-0.1,0-0.1,0-0.2,0c-0.9-0.2-1.9-0.5-2.8-0.8c-0.5-0.1-0.7-0.6-0.6-1.1c0.1-0.5,0.6-0.7,1.1-0.6c0.9,0.3,1.8,0.5,2.7,0.8
			c0.5,0.1,0.7,0.6,0.6,1.1C33.5,71.3,33.2,71.6,32.8,71.6 M38.4,73c-0.1,0-0.1,0-0.2,0c-0.9-0.2-1.9-0.4-2.8-0.7
			c-0.5-0.1-0.7-0.6-0.6-1c0.1-0.5,0.6-0.8,1-0.6c0.9,0.2,1.9,0.4,2.8,0.7c0.5,0.1,0.8,0.6,0.6,1C39.1,72.7,38.7,73,38.4,73
			 M44,74.2c-0.1,0-0.1,0-0.2,0C42.9,74,42,73.8,41,73.6c-0.5-0.1-0.8-0.6-0.7-1c0.1-0.5,0.6-0.8,1-0.7c1,0.2,1.9,0.4,2.8,0.6
			c0.5,0.1,0.8,0.5,0.7,1C44.7,73.9,44.4,74.2,44,74.2 M49.6,75.2c0,0-0.1,0-0.1,0c0,0-1.1-0.2-2.9-0.5c-0.5-0.1-0.8-0.5-0.7-1
			c0.1-0.5,0.5-0.8,1-0.7c1.7,0.3,2.8,0.5,2.8,0.5c0.5,0.1,0.8,0.5,0.7,1C50.4,74.9,50,75.2,49.6,75.2"/>
	</g>
</g>
<rect x="6.1" y="2.1" class="st1" width="31" height="1.3"/>
<rect x="6.1" y="2.8" class="st1" width="1.3" height="35.7"/>
<rect x="35.8" y="2.8" class="st1" width="1" height="35.7"/>
<rect x="6.7" y="37.2" class="st1" width="29.7" height="1.3"/>
<rect x="8.1" y="38.5" class="st1" width="1.2" height="3.9"/>
<rect x="13.2" y="38.5" class="st1" width="1.2" height="4.1"/>
<rect x="8.7" y="41.1" class="st1" width="5.1" height="1.3"/>
<rect x="28.8" y="37.9" class="st1" width="1.1" height="3.9"/>
<rect x="33.8" y="37.9" class="st1" width="1.3" height="3.9"/>
<rect x="28.8" y="41.1" class="st1" width="6.3" height="1.3"/>
<rect x="2.2" y="15.8" class="st1" width="4.2" height="1.3"/>
<rect x="2.2" y="16.4" class="st1" width="1.3" height="8.1"/>
<rect x="2.8" y="23.6" class="st1" width="3.9" height="1"/>
<rect x="36.8" y="15.8" class="st1" width="4.2" height="1.3"/>
<rect x="39.6" y="16.8" class="st1" width="1.3" height="8.1"/>
<rect x="36.4" y="23.6" class="st1" width="3.9" height="1.3"/>
<rect x="9.5" y="13.8" class="st1" width="24.3" height="1.3"/>
<rect x="20.9" y="14.8" class="st1" width="1.3" height="13.3"/>
<rect x="9.5" y="26.8" class="st1" width="24.3" height="1.3"/>
<rect x="32.5" y="14.5" class="st1" width="1.3" height="13"/>
<rect x="9.5" y="14.5" class="st1" width="0.9" height="12.7"/>
<g>
	<path class="st1" d="M32.3,6.6v3.7H10.8V6.6H32.3 M34.1,4.8H9v7.3h25.1V4.8L34.1,4.8z"/>
</g>
</svg>
