<?xml version="1.0" encoding="utf-8"?>
<!-- Generator: Adobe Illustrator 22.0.0, SVG Export Plug-In . SVG Version: 6.00 Build 0)  -->
<svg version="1.1" id="图层_1" xmlns="http://www.w3.org/2000/svg" xmlns:xlink="http://www.w3.org/1999/xlink" x="0px" y="0px"
	 viewBox="0 0 82 84" style="enable-background:new 0 0 82 84;" xml:space="preserve">
<style type="text/css">
	.st0{fill:#384B5D;}
	.st1{filter:url(#Adobe_OpacityMaskFilter);}
	.st2{fill:#FFFFFF;}
	.st3{mask:url(#mask-2_1_);fill:#384B5D;}
</style>
<title>INDEPENDENT - ICON</title>
<desc>Created with Sketch.</desc>
<g id="Desktop-Design">
	<g id="Destination---China" transform="translate(-999.000000, -3575.000000)">
		<g id="INDEPENDENT---ICON" transform="translate(999.000000, 3575.000000)">
			<g id="Group-3" transform="translate(0.000000, 23.783104)">
				<path id="Fill-1" class="st0" d="M38.9,35.5l-1.7,1.8l-1.8-1.7c0.3-0.3,0.6-0.6,0.9-0.9c0.3-0.3,0.5-0.6,0.8-0.9L38.9,35.5z
					 M42.1,35.4L54.4,47l-4.8,5.1L37.3,40.6L42.1,35.4z M24,37.9c-8.4,0.2-15.4-6.4-15.7-14.7c-0.1-1.9,0.2-3.8,0.9-5.5
					c2-5.6,7.2-9.7,13.4-10.1V5.3c-4.5,0.2-8.7,2.2-11.8,5.4C7.6,14.1,5.9,18.6,6,23.2c0.1,4.7,2.1,9,5.5,12.2
					c3.4,3.2,7.9,4.9,12.5,4.8c3.5-0.1,6.8-1.2,9.6-3.2l2.1,1.9l-0.8,0.9c-0.4,0.5-0.5,1.2,0,1.6l14.9,14l7.8-8.5L42.8,33
					c-0.2-0.2-0.5-0.3-0.8-0.3c-0.3,0-0.6,0.1-0.8,0.3l-0.8,0.9l-2.1-1.9c0.5-0.9,1-1.8,1.4-2.8l-2.3-0.4C35.2,34,30.1,37.7,24,37.9
					L24,37.9z"/>
			</g>
			<path id="Fill-4" class="st0" d="M38.7,46.1c0,1.5-0.1,3-0.5,4.3l0.8,0.1V38.4c-2.8-5.2-8.1-8.9-14.2-9.3v2.3
				C32.4,32,38.5,38.3,38.7,46.1"/>
			<path id="Fill-6" class="st0" d="M23.8,57.4c-6,0.2-11.1-4.6-11.3-10.6c0-1.4,0.2-2.7,0.6-3.9c1.4-4,5-6.9,9.4-7.2v-2.3
				c-7,0.5-12.5,6.5-12.3,13.5h0c0.1,3.5,1.6,6.8,4.2,9.2c2.6,2.4,5.9,3.7,9.5,3.6c5.1-0.1,9.5-3.2,11.6-7.6l-2.3-0.4
				C31.3,55,27.9,57.3,23.8,57.4"/>
			<path id="Fill-8" class="st0" d="M34.5,46.1c0,0,0,0.1,0,0.2c0,1.2-0.1,2.3-0.5,3.4l2.2,0.4c0.3-1.2,0.5-2.6,0.5-3.9
				c-0.2-6.7-5.4-12.1-12-12.8v2.3C30.1,36.3,34.3,40.6,34.5,46.1"/>
			<path id="Fill-10" class="st0" d="M17.2,53.2c0.5,0.4,1.2,0.4,1.6,0c0.1-0.1,0.2-0.3,0.2-0.4c0-0.1,0.1-0.3,0.1-0.4
				c0-0.3-0.1-0.6-0.4-0.8c-2.8-2.6-2.9-7-0.3-9.8c0.2-0.2,0.3-0.5,0.3-0.8c0-0.3-0.1-0.6-0.4-0.8c-0.2-0.2-0.5-0.3-0.8-0.3
				c-0.3,0-0.6,0.1-0.8,0.4h0C13.3,43.9,13.4,49.7,17.2,53.2"/>
			<g id="Group-14" transform="translate(16.041667, 0.084991)">
				<g id="Clip-13">
				</g>
				<defs>
					<filter id="Adobe_OpacityMaskFilter" filterUnits="userSpaceOnUse" x="6.5" y="4.9" width="52.6" height="48">
						<feColorMatrix  type="matrix" values="1 0 0 0 0  0 1 0 0 0  0 0 1 0 0  0 0 0 1 0"/>
					</filter>
				</defs>
				<mask maskUnits="userSpaceOnUse" x="6.5" y="4.9" width="52.6" height="48" id="mask-2_1_">
					<g class="st1">
						<polygon id="path-1_1_" class="st2" points="6.5,4.9 59.1,4.9 59.1,52.9 6.5,52.9 						"/>
					</g>
				</mask>
				<path id="Fill-12" class="st3" d="M56.9,48.8l-15-4v-19l1.1,0.5c0.3,0.1,0.6,0.2,0.9,0.1c0.3-0.1,0.5-0.3,0.7-0.5
					c0.1-0.3,0.2-0.6,0.1-0.9c-0.1-0.3-0.3-0.5-0.5-0.7c-0.7-0.4-1.4-0.7-2.2-1v-16l15,4L56.9,48.8z M39.6,22.8
					c-5-1.2-10.2-0.3-14.4,2.6V12.9l14.4-5.3V22.8z M39.6,44.9l-14.4,5.3V28.1c4-3.3,9.4-4.5,14.4-3V44.9z M58.3,9.5L41.1,4.9
					l-0.5,0L24,10.9l-16.1-3C7.5,7.9,7.2,8,7,8.2C6.7,8.4,6.5,8.7,6.5,9.1v20c0.1,0,0.3,0,0.4,0c0.6,0,1.2,0,1.8,0V10.4L23,13v14.1
					c-1.6,1.4-2.6,2.7-3.6,4.5c-0.2,0.3-0.2,0.6-0.1,0.8c0.1,0.3,0.3,0.5,0.6,0.7l0.5,0.1c0.4,0,0.8-0.2,1-0.6
					c0.5-1,0.9-1.5,1.6-2.4v8.1c1.2,2.3,1.9,4.8,2,7.6c0.1,2.4-0.4,4.8-1.2,7l0.2,0h0.4l16.5-6.1l17,4.5l0.8-0.1l0.2-0.1
					c0.3-0.2,0.4-0.5,0.4-0.9V10.6C59.2,10.1,58.9,9.6,58.3,9.5L58.3,9.5z"/>
			</g>
			<path id="Fill-15" class="st0" d="M39,38.4v12.1l-0.8-0.1c-0.2,0.7-0.5,1.4-0.8,2.1l2.3,0.4c0.9-2.2,1.3-4.6,1.2-7
				C40.9,43.3,40.2,40.7,39,38.4"/>
			<path id="Fill-17" class="st0" d="M23.1,31.3c0.6,0,1.2,0,1.7,0.1v-2.3c-0.6,0-1.2-0.1-1.8,0c-0.1,0-0.3,0-0.4,0v2.3
				C22.7,31.4,22.9,31.4,23.1,31.3"/>
			<path id="Fill-19" class="st0" d="M33.2,51.7l2.3,0.4c0.2-0.4,0.4-0.8,0.6-1.3c0.1-0.3,0.2-0.6,0.3-0.8L34,49.6
				C33.8,50.4,33.5,51.1,33.2,51.7"/>
			<path id="Fill-21" class="st0" d="M22.6,33.4v2.3c0.2,0,0.4-0.1,0.6-0.1c0.5,0,1.1,0,1.6,0.1v-2.3c-0.6-0.1-1.1-0.1-1.7-0.1
				C22.9,33.3,22.8,33.3,22.6,33.4"/>
			<path id="Fill-23" class="st0" d="M63.4,30.5L63.4,30.5c0.2,0.2,0.5,0.4,0.8,0.4c0.3,0,0.6-0.1,0.8-0.3l1.5-1.4l1.5,1.5
				c0.5,0.4,1.2,0.3,1.6-0.2c0.3-0.4,0.3-0.9-0.1-1.4l-1.4-1.4l1.5-1.5c0.4-0.5,0.3-1.2-0.2-1.6c-0.4-0.3-0.9-0.3-1.4,0.1L66.5,26
				L65,24.5c-0.2-0.2-0.5-0.3-0.8-0.2c-0.3,0-0.6,0.2-0.7,0.4c-0.3,0.4-0.3,0.9,0.1,1.4l1.4,1.4L63.6,29
				C63.1,29.4,63,30.1,63.4,30.5"/>
		</g>
	</g>
</g>
</svg>
