<?xml version="1.0" encoding="UTF-8"?>
<svg width="82px" height="84px" viewBox="0 0 82 84" version="1.1" xmlns="http://www.w3.org/2000/svg" xmlns:xlink="http://www.w3.org/1999/xlink">
    <!-- Generator: Sketch 54 (76480) - https://sketchapp.com -->
    <title>FULLY ESCORTED - ICON</title>
    <desc>Created with Sketch.</desc>
    <defs>
        <polygon id="path-1" points="0 0.752033898 49.6128772 0.752033898 49.6128772 38.3468136 0 38.3468136"></polygon>
        <polygon id="path-3" points="0.95925614 0.180372881 80.2158526 0.180372881 80.2158526 47.5423729 0.95925614 47.5423729"></polygon>
    </defs>
    <g id="Desktop-Design" stroke="none" stroke-width="1" fill="none" fill-rule="evenodd">
        <g id="Destination---China" transform="translate(-359.000000, -3573.000000)">
            <g id="FULLY-ESCORTED---ICON" transform="translate(359.000000, 3572.000000)">
                <path d="M63.6797614,30.8175424 C63.4927439,31.2641525 62.9762877,31.4759322 62.518814,31.2872034 L58.9050596,29.7600847 C58.5885684,29.6304237 58.3770947,29.3019492 58.3770947,28.9489831 L58.3770947,24.0866949 C58.3770947,23.6040678 58.7640772,23.205 59.2575158,23.205 C59.738007,23.205 60.1364982,23.6040678 60.1364982,24.0866949 L60.1364982,28.3611864 L63.2107789,29.6664407 C63.6567439,29.8537288 63.8667789,30.3709322 63.6797614,30.8175424" id="Fill-1" fill="#384B5D"></path>
                <path d="M62.6120351,19.1634661 C65.3698246,19.9745678 67.4442807,21.9828729 68.4426667,24.4622797 L68.7246316,23.9220254 C68.9461754,23.4984661 69.4856491,23.3227034 69.9085965,23.5575339 C70.3430526,23.780839 70.5070526,24.3095678 70.2840702,24.7432119 L68.969193,27.2571949 C68.7821754,27.6216864 68.3721754,27.7988898 67.9837544,27.7038051 C67.9147018,27.6922797 67.8442105,27.6692288 67.7852281,27.6332119 L65.2504211,26.3063475 C64.8174035,26.0830424 64.6534035,25.5543136 64.876386,25.1192288 C65.0993684,24.6971102 65.6388421,24.5199068 66.0603509,24.7446525 L66.822807,25.1422797 C66.0258246,23.1339746 64.3484211,21.5016864 62.1070877,20.8447373 C61.4280702,20.6444831 60.7346667,20.5493983 60.0657193,20.5493983 C56.922386,20.5493983 54.0135439,22.6167712 53.0870877,25.7891441 C52.8871228,26.4705847 52.793614,27.1635508 52.793614,27.8449915 C52.793614,30.9928729 54.8464912,33.895839 58.0257895,34.835161 C58.7062456,35.0354153 59.3982105,35.1290593 60.0657193,35.1290593 C61.6381053,35.1290593 63.1515088,34.6118559 64.3829474,33.6955847 C65.6273333,32.7793136 66.576807,31.4755 67.0457895,29.8893136 C67.1637544,29.5017712 67.5032632,29.2554153 67.8902456,29.2554153 C67.9736842,29.2554153 68.0542456,29.2669407 68.1362456,29.2899915 C68.6066667,29.431178 68.8756842,29.9123644 68.7347018,30.3834661 C67.5737544,34.3294831 63.9844561,36.8910085 60.0657193,36.8910085 C59.2227018,36.8910085 58.376807,36.7728729 57.5208421,36.5265169 C53.5905965,35.3638898 51.0342105,31.7578729 51.0342105,27.8449915 C51.0342105,26.9993136 51.1507368,26.1421102 51.3981754,25.2964322 C52.5591228,21.3489746 56.1484211,18.7874492 60.0657193,18.7874492 C60.9001053,18.7874492 61.7560702,18.9055847 62.6120351,19.1634661" id="Fill-3" fill="#384B5D"></path>
                <g id="Group-7" transform="translate(0.000000, 0.689220)">
                    <mask id="mask-2" fill="white">
                        <use xlink:href="#path-1"></use>
                    </mask>
                    <g id="Clip-6"></g>
                    <path d="M2.06726316,14.7254576 C2.06726316,14.3134237 2.23270175,13.9129153 2.51898246,13.6247797 C2.80957895,13.3337627 3.20087719,13.1724068 3.61807018,13.1724068 L10.1910175,13.1724068 L37.5200351,13.1724068 L45.994807,13.1724068 C46.8493333,13.1724068 47.545614,13.8696949 47.545614,14.7254576 C47.545614,15.5812203 46.8493333,16.2785085 45.994807,16.2785085 L38.3572982,16.2785085 L38.2422105,16.2785085 L9.37533333,16.2785085 L3.61807018,16.2785085 C2.76210526,16.2785085 2.06726316,15.5812203 2.06726316,14.7254576 L2.06726316,14.7254576 Z M23.8562456,2.82113559 C28.9834035,2.82113559 33.7034386,6.09435593 35.9922456,11.1021525 L11.7159298,11.1021525 C13.9932281,6.09435593 18.7132632,2.82113559 23.8562456,2.82113559 L23.8562456,2.82113559 Z M40.6907018,33.5234237 L39.9037895,33.8749492 L33.3927018,33.8749492 C33.4473684,33.8115593 33.4905263,33.7366441 33.5437544,33.6732542 C33.8055789,33.3620678 34.0458246,33.0321525 34.2803158,32.6964746 C34.3925263,32.5365593 34.5119298,32.3838475 34.6169474,32.2196102 C34.9449474,31.7081695 35.2484912,31.1765593 35.5160702,30.6146949 C36.8812982,27.7563898 37.9544912,24.7525763 38.711193,21.6868136 C38.7514737,21.5240169 38.7903158,21.3641017 38.8277193,21.2085085 C38.8377895,21.1681695 38.8449825,21.1321525 38.8550526,21.0932542 C38.8780702,20.9952881 38.9010877,20.897322 38.9212281,20.8065593 C41.7538246,26.9928305 41.1481754,31.643339 40.6907018,33.5234237 L40.6907018,33.5234237 Z M30.1702456,34.0896102 C29.9688421,34.2437627 29.7472982,34.3964746 29.5516491,34.5304576 C26.068807,36.8168136 21.6105965,36.8067288 18.1737895,34.5304576 C17.9608772,34.3849492 17.7494035,34.2408814 17.5537544,34.0910508 C16.0662456,32.9385085 14.8909123,31.4618136 14.0392632,29.6624068 C12.8250877,27.1066441 11.8669825,24.4356271 11.1476842,21.6752881 C12.7459649,22.212661 15.2922807,22.8854576 18.0227368,22.8854576 C21.3674737,22.8854576 24.9740351,21.8654576 27.4225263,18.3487627 L37.2409474,18.3487627 C37.235193,18.4063898 37.2323158,18.4625763 37.2265614,18.5202034 C37.1675789,19.0359661 37.0898947,19.5560508 36.9776842,20.0602881 C36.9575439,20.1121525 36.9417193,20.1654576 36.9302105,20.2202034 C36.8625965,20.5544407 36.7834737,20.8699492 36.7029123,21.1955424 C35.9821754,24.1201186 34.9550175,26.9899492 33.6516491,29.7214746 C32.8129474,31.4791017 31.6404912,32.9485932 30.1702456,34.0896102 L30.1702456,34.0896102 Z M10.4844912,18.3487627 L24.7381053,18.3487627 C20.1245263,22.9661356 12.2352632,19.9680847 10.6067719,19.2765593 C10.5866316,19.1569831 10.5592982,19.0388475 10.5434737,18.9192712 C10.5290877,18.8184237 10.5161404,18.7190169 10.5046316,18.6181695 C10.4931228,18.5288475 10.4931228,18.4380847 10.4844912,18.3487627 L10.4844912,18.3487627 Z M6.95129825,33.8749492 C6.48663158,32.1850339 5.61484211,27.2377458 8.7337193,20.5731695 C8.74522807,20.6250339 8.75817544,20.6768983 8.76968421,20.7302034 C9.53357895,24.1042712 10.6787018,27.4091864 12.1935439,30.5902034 C12.4596842,31.1549492 12.7632281,31.688 13.0912281,32.202322 C13.1962456,32.3694407 13.3170877,32.5235932 13.4292982,32.6849492 C13.6652281,33.0220678 13.9054737,33.3519831 14.1687368,33.6646102 C14.2234035,33.7308814 14.268,33.808678 14.3255439,33.8749492 L6.95129825,33.8749492 Z M7.5454386,18.3487627 C2.33484211,28.1900339 5.12284211,35.0174068 5.25087719,35.3170678 C5.41487719,35.6988475 5.78747368,35.9452034 6.20178947,35.9452034 L16.5927719,35.9452034 C16.735193,36.0460508 16.8718596,36.1468983 17.0229123,36.2491864 C19.0930526,37.6207119 21.4566667,38.3468136 23.8562456,38.3468136 C26.247193,38.3468136 28.6093684,37.6250339 30.7010877,36.2506271 C30.8435088,36.1541017 30.9873684,36.0474915 31.1312281,35.9452034 L40.1238947,35.9452034 L41.3438246,35.9452034 C41.7552632,35.9452034 42.1307368,35.6930847 42.2947368,35.3170678 C42.2947368,35.3170678 42.4069474,35.0606271 42.5536842,34.5592712 C43.2226316,32.2801186 44.2310877,26.3099492 40.0073684,18.3487627 L45.994807,18.3487627 C47.9901404,18.3487627 49.6128772,16.7222373 49.6128772,14.7254576 C49.6128772,12.7272373 47.9901404,11.1021525 45.994807,11.1021525 L38.2249474,11.1021525 C35.7707018,4.88418644 30.0882456,0.750881356 23.8562456,0.750881356 C17.6098596,0.750881356 11.9274035,4.88418644 9.48322807,11.1021525 L3.61807018,11.1021525 C2.64845614,11.1021525 1.73926316,11.4781695 1.05592982,12.1624915 C0.375473684,12.8439322 0,13.7558814 0,14.7254576 C0,16.7222373 1.62273684,18.3487627 3.61807018,18.3487627 L7.5454386,18.3487627 Z" id="Fill-5" fill="#384B5D" mask="url(#mask-2)"></path>
                </g>
                <g id="Group-10" transform="translate(1.438596, 36.706169)">
                    <mask id="mask-4" fill="white">
                        <use xlink:href="#path-3"></use>
                    </mask>
                    <g id="Clip-9"></g>
                    <path d="M78.1485895,32.7368136 L69.6220281,28.927661 L69.6220281,2.80384746 L78.1485895,6.613 L78.1485895,32.7368136 Z M67.5547649,28.927661 L59.0267649,32.7368136 L59.0267649,6.613 L67.5547649,2.80384746 L67.5547649,28.927661 Z M56.9595018,32.7396949 L48.4329404,28.9319831 L48.4329404,2.80672881 L56.9595018,6.613 L56.9595018,32.7396949 Z M46.3656772,28.9319831 L43.8740281,30.0470678 L43.8740281,20.3714746 C43.8740281,19.747661 43.8366246,19.1296102 43.7646947,18.5158814 C43.7402386,18.3084237 43.6913263,18.1081695 43.6596772,17.9021525 C43.5963789,17.5002034 43.5373965,17.0982542 43.4453263,16.7035085 C43.3877825,16.4571525 43.3043439,16.218 43.2352912,15.9759661 C43.1374667,15.6316441 43.0468351,15.2858814 42.9274316,14.9502034 C42.8339228,14.6894407 42.7173965,14.4402034 42.6109404,14.1852034 C42.4829053,13.878339 42.3635018,13.5700339 42.2182035,13.2718136 C42.0901684,13.0110508 41.9391158,12.7632542 41.7981333,12.5082542 C41.6442035,12.2330847 41.4960281,11.9535932 41.3262737,11.6870678 C41.1651509,11.4349492 40.9838877,11.1972373 40.8083789,10.9537627 C40.6285544,10.7030847 40.4544842,10.4495254 40.2617123,10.2103729 C40.0703789,9.97554237 39.8617825,9.75655932 39.6589404,9.53325424 C39.4517825,9.30418644 39.2475018,9.07367797 39.0273965,8.85757627 C38.8144842,8.65011864 38.587186,8.45850847 38.3627649,8.26257627 C38.1858175,8.10698305 38.0232561,7.93986441 37.8376772,7.79291525 L37.8376772,6.61444068 L46.3656772,2.80672881 L46.3656772,28.9319831 Z M41.8067649,31.643339 L41.8067649,34.0867288 L34.8195018,34.0867288 L34.8195018,23.7354576 C34.8195018,23.1635085 34.3577123,22.6996102 33.7865895,22.6996102 C33.2154667,22.6996102 32.7536772,23.1635085 32.7536772,23.7354576 L32.7536772,45.4724068 L12.0810456,45.4724068 L12.0810456,23.7354576 C12.0810456,23.1635085 11.6178175,22.6996102 11.0466947,22.6996102 C10.4770105,22.6996102 10.0137825,23.1635085 10.0137825,23.7354576 L10.0137825,34.0867288 L3.0265193,34.0867288 L3.0265193,20.3714746 C3.0265193,15.5192712 5.46637895,11.0834237 9.55199298,8.50461017 L14.5985895,5.31494915 C16.4040281,7.81308475 19.309993,9.32579661 22.4173614,9.32579661 C25.5232912,9.32579661 28.4306947,7.81308475 30.2361333,5.31494915 L35.2841684,8.50605085 C35.5877123,8.69622034 35.8912561,8.90511864 36.1890456,9.13274576 C39.706414,11.7518983 41.8067649,15.9529153 41.8067649,20.3714746 L41.8067649,31.643339 Z M34.8195018,45.4724068 L41.8067649,45.4724068 L41.8067649,36.1569831 L34.8195018,36.1569831 L34.8195018,45.4724068 Z M3.0265193,45.4724068 L10.0137825,45.4724068 L10.0137825,36.1569831 L3.0265193,36.1569831 L3.0265193,45.4724068 Z M79.6030105,4.99655932 L69.009186,0.262491525 C68.9948,0.256728814 68.9775368,0.255288136 68.9631509,0.249525424 C68.9214316,0.233677966 68.8811509,0.222152542 68.8394316,0.212067797 C68.7977123,0.201983051 68.755993,0.191898305 68.7128351,0.186135593 C68.6725544,0.180372881 68.6337123,0.180372881 68.5934316,0.180372881 C68.5488351,0.180372881 68.5028,0.180372881 68.4582035,0.186135593 C68.4193614,0.191898305 68.3819579,0.200542373 68.3445544,0.209186441 C68.2985193,0.220711864 68.2553614,0.232237288 68.2122035,0.249525424 C68.1978175,0.255288136 68.181993,0.256728814 68.167607,0.262491525 L57.992414,4.80783051 L47.8200982,0.265372881 C47.8042737,0.259610169 47.7884491,0.258169492 47.7726246,0.25240678 C47.7309053,0.235118644 47.6906246,0.225033898 47.6474667,0.213508475 C47.6086246,0.203423729 47.5683439,0.194779661 47.5266246,0.189016949 C47.4834667,0.184694915 47.4403088,0.183254237 47.3957123,0.183254237 C47.3554316,0.183254237 47.3151509,0.184694915 47.2748702,0.189016949 C47.2317123,0.194779661 47.189993,0.203423729 47.1482737,0.214949153 C47.1065544,0.225033898 47.0662737,0.236559322 47.0245544,0.25240678 C47.0087298,0.258169492 46.9929053,0.259610169 46.9785193,0.266813559 L36.3846947,4.99655932 C36.0106596,5.16223729 35.770414,5.53249153 35.770414,5.94164407 L35.770414,6.36520339 L30.4720632,3.0170678 C30.2332561,2.86579661 29.9426596,2.81825424 29.6678877,2.88884746 C29.3931158,2.958 29.1600632,3.13664407 29.0205193,3.383 C27.6725544,5.77164407 25.1420632,7.25554237 22.4173614,7.25554237 C19.6926596,7.25554237 17.1607298,5.77164407 15.8127649,3.383 C15.6732211,3.13664407 15.4387298,2.958 15.1653965,2.88884746 C14.8920632,2.81825424 14.6000281,2.86579661 14.3612211,3.0170678 L8.45002807,6.75274576 C3.76020351,9.71477966 0.95925614,14.8046949 0.95925614,20.3714746 L0.95925614,46.5068136 C0.95925614,47.0787627 1.42248421,47.542661 1.99216842,47.542661 L42.8411158,47.542661 C43.4122386,47.542661 43.8740281,47.0787627 43.8740281,46.5068136 L43.8740281,32.3146949 L47.4000281,30.7371525 L57.5723439,35.2796102 C57.5910456,35.2882542 57.6126246,35.2853729 57.6313263,35.2925763 C57.7349053,35.3314746 57.8413614,35.3559661 57.9492561,35.3602881 C57.9650807,35.3617288 57.9780281,35.3703729 57.9938526,35.3703729 C58.1262035,35.3703729 58.2556772,35.3343559 58.3793965,35.2839322 C58.3909053,35.2796102 58.4038526,35.2824915 58.4139228,35.2767288 L68.5876772,30.7328305 L78.7614316,35.2767288 C78.8966596,35.3372373 79.0405193,35.3674915 79.1829404,35.3674915 C79.3785895,35.3674915 79.5756772,35.3113051 79.7454316,35.2003729 C80.0389053,35.0087627 80.2158526,34.6831695 80.2158526,34.3316441 L80.2158526,5.94020339 C80.2158526,5.53249153 79.975607,5.16223729 79.6030105,4.99655932 L79.6030105,4.99655932 Z" id="Fill-8" fill="#384B5D" mask="url(#mask-4)"></path>
                </g>
            </g>
        </g>
    </g>
</svg>