<svg width="35" height="36" viewBox="0 0 35 36" xmlns="http://www.w3.org/2000/svg" xmlns:xlink="http://www.w3.org/1999/xlink"><title>Group 3</title><defs><path id="a" d="M0 .007h35V35.2H0z"/></defs><g transform="translate(0 .793)" fill="none" fill-rule="evenodd"><mask id="b" fill="#fff"><use xlink:href="#a"/></mask><path d="M15.155 32.44c.15-.551.616.49.25.692-.828-.04.108-.698-.25-.692zm.287-.574c-.17.014-.157-.203-.212-.337.17-.013.159.202.212.337zm.48-2.036c.075.383-.079.582-.462.593l-.06-.535.523-.058zM15.845.322c-.708-.13.665-.283 0 0zm-.056 1.086c.103-.128-.064.084 0 0zm.114-.554c-.532-.488.584.428 0 0zm.027 32.22c.17-.014.157.205.211.336-.169.016-.159-.201-.211-.336zm.831 1.17c-.17.242-.112.382.214.338-.254.898-1.11.052-1.43-.204.118-.46.694.172 1.216-.135zm-.406-.495c-.065.081.1-.13 0 0zm.075-.911c.102-.13-.064.083 0 0zm.366-30.278c-.065.08.1-.13 0 0zm.195 30.575c.1-.127-.064.084 0 0zm-1.525.531c.1-.128-.064.084 0 0zm-.755-.456c-.725-.37.548-.324 0 0zm-.327.216c.101-.128-.063.084 0 0zm-.06-30.952c-.064.083.1-.13 0 0zm-.044 22.741c-.065.083.103-.13 0 0zm.113-2.176c-.064.083.1-.13 0 0zm.201 9.102c-.708-.13.664-.283 0 0zm-1.76-30.404c-.586-.286.01-.95.23-1.107.427.156-.036.926-.23 1.107zm-.269.75c.393.545-.59-.819 0 0zM11.56 1.338c.065-.083-.101.13 0 0zm-.536 31.921l-.04-.355.348-.04.04.358-.348.037zm.25-29.725c-.17.014-.16-.203-.212-.336.168-.015.158.204.211.336zm-.621 27.965c-.064.081.102-.13 0 0zm-.348.039c-.064.081.102-.13 0 0zM9.012 3.785c-.206-.005-.182-.309-.231-.514.186-.173.439-.286.85-.274.353.72-.97.068-.619.788zm-.093.732c.1-.128-.066.084 0 0zm-.385 1.306c-.064.082.102-.13 0 0zm-.692 2.439c-.71-.13.664-.283 0 0zM7.65 9.727c.17-.014.158.202.213.336-.17.014-.16-.204-.213-.336zm-.292-1.05c-.6-.097-.195-.382-.078-.714.434-.02.117.599.078.713zm-.468-3.395c.617.37-.389.907 0 0zm-.56-.296c.193.021.156.34.386.316-.02.504-.544.072-.386-.316zm.179 3.966c-.065.082.1-.13 0 0zm-.14 19.106c.102-.128-.065.084 0 0zM6.042 5.56c.17-.015.158.203.213.335-.17.016-.16-.203-.213-.335zm.02 22.896c-.709-.132.665-.284 0 0zm-.29-1.05l-.01.013.01-.013zm-.058 1.088c.102-.129-.064.083 0 0zm.113-2.175c.261.052 0 .159.04.355-.223-.019-.215-.332-.04-.355zm.036-1.268c.102-.127-.064.084 0 0zm.06.534c.152.018.157-.086.153-.195.513.187-.483.634-.366-.142.17-.013.159.205.212.337zm-.03-15.842c-.708-.13.664-.284 0 0zM5.62 8.87c-.71-.128.665-.281 0 0zm-.27.752c.17-.013.159.203.214.337-.17.015-.16-.203-.213-.337zm-.083 18.02c-.473.544.415-.595 0 0zm-.484-1.21c.102-.128-.065.084 0 0zm-.366-.14c-.407.094.005-.528.114-.554.282-.062.278.465-.114.555zm-.58-.476l-.348.04c-.123-.37.21-.366.482-.415-.017.15-.154.197-.135.375zm-.21 1.287c-.067.084.1-.13 0 0zm-.678.255c.119-.174.144-.424.097-.732.3-.09.42.964-.097.732zm.653-3.677c.169-.015.159.202.213.335-.17.015-.16-.203-.213-.335zm.134-.376c-.17.013-.158-.205-.213-.337.17-.015.16.202.213.337zM3.306 10.21c.168-.013.159.202.214.337-.17.014-.16-.205-.214-.337zm.48-2.038c-.17.015-.16-.2-.214-.335.17-.014.16.201.213.335zm.668 16.856c-.027.248-.42.195-.675.254l-.059-.534c.46-.18.39.316.734.28zm-.49-13.63c.102-.13-.063.083 0 0zm.275 11.67c.1-.129-.065.084 0 0zm.059.536c-.065.082.1-.132 0 0zm.917-15.229c-.065.082.1-.129 0 0zM2.234 25.634c.81.668-.812-.666 0 0zm.633-2.232c-.222-.021-.213-.336-.04-.356.263.05 0 .156.04.356zm-.387-.317c.101-.132-.063.081 0 0zm-1.137.848c-.065.082.1-.132 0 0zm15.784 10.451c-.065.08.1-.13 0 0zm.25-.93c.292-.07.482.253.522-.059.538-.019-.439 1.23-.31.396-.168.024-.11.232-.134.375-.435.02-.118-.597-.078-.712zm-.098-.89c.523-.266.453.231.734.278-.063.445-.868.19-.734-.279zm.432-24.138c-.066.082.1-.128 0 0zm-.03-7.408c-.604-.195.629-.52 0 0zm.445.85c.102-.129-.064.084 0 0zm.954 17.405c.1-.13-.065.083 0 0zm.272.87c-.065.083.1-.13 0 0zm.313 2.85c.1-.129-.064.084 0 0zm.726 10.666c-.066.082.1-.128 0 0zm.133-.374c-.065.081.101-.13 0 0zm.284-31.874c-.065.081.102-.13 0 0zm.102 32.19c.102-.127-.064.082 0 0zm.523-.058c-.534-.489.583.427 0 0zM21.4 8.376c-.066.083.102-.128 0 0zm.78-7.298c-.17.015-.16-.204-.214-.338.169-.013.16.203.214.338zm.544 1.741c.26.051 0 .161.039.357-.225-.02-.217-.334-.04-.357zm.102 16.938l-.118-.005c.06 0 .165.006.261.01l-.143-.005zm.486 1.208c.101-.128-.064.084 0 0zm.377-6.171c-.065.082.1-.132 0 0zm.575-13.408c-.03.027-.11.09-.268.21-.338.265.174-.134.268-.21zm.486.67c-.066.082.1-.132 0 0zm.48 5.064c.763-.05-.113.87.602.654-.237.616-1.155-.661-1.564.175-.79-.552.832-.493.963-.829zm.896-2.154c-.29.098-.344-.103-.388-.316-.86.524.397-.808.388.316zm.197 3.405c-.17.012-.157-.205-.212-.338.17-.015.158.203.212.338zm.068-5.779c-.485-.55.631.366 0 0zm.137 1.246c.703.468-.46.66 0 0zm.082 2.335c.17-.011.159.204.212.337-.17.016-.158-.203-.212-.337zm.52-1.679c-.17.012-.16-.204-.213-.337.168-.015.157.203.213.337zm.51 4.63c-.01.207-.164.12-.175.02-.168.025-.111.233-.133.376-.178.47-.216-.926-.776-.636.085-.353.84.126 1.084.24zm-.255-2.314c.702.467-.463.658 0 0zm.153-.199c-.604-.194.627-.519 0 0zm.636-.613c-.222-.052-.382-.187-.406-.495.223.054.382.19.406.495zm1.08-1.38c-.17.456-.65.656-1.139.847.174-.449.486-.787 1.139-.847zm-.967-.793c.26.05 0 .156.04.355-.225-.02-.213-.334-.04-.355zm.598.653c.102-.128-.064.084 0 0zm-.055 1.088c-.475.545.414-.593 0 0zm-.25.93c-.064.082.102-.13 0 0zm.948.616c-.884.088-.978.452-1.545.352.168-.484 1.267-.422.731-1.345.437-.26.542.808.523-.058.631.147.553.56.291 1.051zm-.27.75c-.71-.13.665-.284 0 0zm1.197-.312c.324 1.021-1.22.51-1.08 1.38-.2-.01-.114-.166-.019-.176-.146-.29-.412-.068-.328.216-.678-.781 1.031-.985 1.427-1.42zm.292 1.048c-.064.083.101-.128 0 0zm.172 11.158c.101-.13-.064.085 0 0zm-.868-11.08c.382-.664.522.868 0 0zm-.828.452c.22.054.38.188.406.498-.222-.053-.383-.19-.406-.498zm-.016 14.246c-.066.083.1-.13 0 0zm-.1-13.69c-.065.082.1-.13 0 0zm-.017 1.443c-.065.083.102-.129 0 0zm-.608 18.457l-.039-.354.348-.04.039.356-.348.038zm.201-7.775c.101-.128-.065.084 0 0zm-.408-13.297c-.224-.018-.215-.334-.04-.354.26.05 0 .158.04.354zm-.256 21.665c-.484-.55.63.366 0 0zm-.62-2.455c-.014-.78 1.027.075 0 0zm.119 2.69c-.533-.489.581.428 0 0zm.403-1.124c-.064.08.102-.13 0 0zm-.942 2.63c-.064.082.1-.132 0 0zm-.406-.497c-.97-.369.7.265 0 0zm-.547-3.367c.17-.012.16.203.214.337-.168.015-.159-.202-.214-.337zm.084 3.96c-.065.082.1-.132 0 0zm-.079-.716c-.064.084.101-.128 0 0zM25.92 9.496c.1-.13-.065.084 0 0zm.028 5.046c-.066.083.1-.132 0 0zm.251.692c.101-.128-.064.084 0 0zm-.181-4.848c-.065.083.1-.13 0 0zm-.699 22.436c.096-.536.24-.232.677-.257-.094.535-.24.23-.677.257zm.436-5.637c-.194.314.034 1.324-.616.789.393-.11.08-.799.616-.79zm-.502.237c-.17.012-.158-.204-.211-.339.167-.015.157.204.211.339zm.096-.734c-.476.544.414-.595 0 0zm.302-16.442c-.065.083.1-.13 0 0zm-.628 18.28c.101-.128-.064.085 0 0zm-.235 1.94c.17-.014.16.201.214.336-.17.014-.16-.202-.214-.336zm-.118-17.944c-.064.082.101-.13 0 0zm-.165-1.134l.047.063.076.107-.123-.17zm-.022 21.094c.1-.128-.064.084 0 0zm-.394-20.44c.101-.128-.063.083 0 0zm-.537 18.381c.17-.016.158.203.214.337-.17.015-.16-.203-.214-.337zm-1.437-9.145c-.066.082.102-.13 0 0zm9.19-14.004c-.605-.196.63-.518 0 0zm-.055 13.89c.261.049 0 .158.04.355-.225-.017-.215-.335-.04-.356zm.294 2.67c-.169.015-.158-.201-.213-.336.17-.013.16.204.213.336zm-.022-12.977c.102-.13-.064.082 0 0zm.446 12.029c.866-.572-.625.412 0 0zm1.118-1.025c.022.71-.552-.074-.657.433-.641-.236.29-.495.657-.433zm-.596-10.21c-.064.083.101-.129 0 0zm.612 8.764c.102-.128-.064.083 0 0zm.811-.63c-.36.576.316.74.56.3.234.201-.425 1.045-.924 1.182.388-.232.017-1.465-.079-.712-.551-.206.04-.812.443-.77zm.73-1.344c-.168.016-.157-.203-.211-.335.17-.016.16.202.212.335zm-1.25 3.025c.102-.13-.063.083 0 0zm-.519 1.68c.102-.13-.064.082 0 0zM15.082 34.973c.24.097.648-.015.831.158.308.028.618.048.93.06.124-.225.316-.505.459-.827.818.291.73-.489 1.388-.154-.228-.692.659-.095.25-.93.837.283.899.647 1.509.914.05.632-.618-.314-.502.237-.206-.008-.182-.31-.233-.517-.672.33-1.232.607-1.099 1.204-.503.104-.579-.344-1.082-.24.056.17.155.264.247.322.366-.006.729-.023 1.089-.051.149-.096.262-.134.303-.024.103-.01.205-.022.308-.034-.003-.079-.01-.165-.015-.247l.695-.078a2.04 2.04 0 0 1-.01.24c.257-.039.51-.085.762-.136-.012-.001-.023-.005-.037-.004.081-.552.318-.27.6-.12a17.42 17.42 0 0 0 7.828-4.146l-.008-.023.03.002A17.597 17.597 0 0 0 35 17.607c0-3.179-.842-6.158-2.308-8.733.062.201.037.433-.09.599-.206-.003-.18-.307-.233-.515-.152-.016-.156.088-.152.199-.443-.025-.088-.692.287-.575.019.017.035.036.051.055a17.459 17.459 0 0 0-.609-.962.705.705 0 0 1-.235.096c.125.246.32.403.58.475-.347.31-1.02.35-.751 1.167-.941.315-.404-1.383-.679-1.367.295.117.545-.488.816-.753a17.846 17.846 0 0 0-.624-.819c.184.563-.327.558-.442.877-.312-.008-.432-.263-.427-.674.2-.05.313.005.367.14.158-.128.14-.405.449-.41-.09-.11-.184-.213-.276-.32-.055.03-.086.08-.059.176-.243-.052-.242-.235-.124-.388a14.711 14.711 0 0 0-.283-.308l-.009.01a.34.34 0 0 1-.014.018l.004-.005.01-.012c.004-.004.006-.008.01-.01a17.564 17.564 0 0 0-2.142-1.948c-.235.288-.591.825.055.76-.007.747-.715.924-1.08 1.38-.111-.41.9-1.758-.06-2.156.01-.262.158-.409.34-.529a17.319 17.319 0 0 0-1.5-.925.522.522 0 0 0-.021.321c-.311.015-.43-.287-.338-.51A17.338 17.338 0 0 0 17.5.008c-.123 0-.243.007-.365.01a.565.565 0 0 1 .12.325c.152.019.156-.087.153-.195.661.18-.952.754-.347.04-.174.287-.699.287-.617.787-.193-.023-.157-.34-.386-.317-.058-.467.627-.328.768-.633-.159.006-.316.014-.474.025-.002.012-.005.023-.005.036a.253.253 0 0 1-.1-.028 17.55 17.55 0 0 0-1.322.141c.033.052.054.12.05.22-.286.12-.395.01-.465-.15-.25.043-.498.09-.745.145.031.208-.022.522.054.673.37-.614.776-.248.926.438-.557-.027-.576.39-1.197.314.27-.501-.087-.957-.077-1.357-.252.06-.501.125-.749.196-.259.272-.509.552-.603.96-.176-.114-.3-.295-.407-.497-.3.078-.36.353-.269.751-.388-.478-1.39.04-2.085.232.133.17.42.141.407.495-.438-.137-1.002.432-1.236-.041-.275.34-.138.341-.56.273l-.04.025c.338.204.286.327.195.828-.322-.008-.263-.501-.489-.633-.108.075-.215.153-.322.232.043.085.077.186.097.302-.75-.434.116 1.158.58.475.056.316-.172.4-.096.732-.342-.396-.348-.26-.488.195-.004-.163-.813-.048-.613-.613-.526.161-.365.888-.945 1.005.23-.604.158-.713-.04-.884A17.596 17.596 0 0 0 0 17.607c0 2.293.44 4.482 1.234 6.49.366-.116.722-.209.977-.26-.533.417-.005.285.098.888.388-.695 1.056-.047 1.295.577-.355-.022-.538.096-.482.416-.19-.099-.223-.392-.56-.3.094-.33.313-.061.52-.058-.024-.306-.179-.446-.406-.495-.417.176-.637.325-.896.48.282.577.596 1.136.937 1.677h.022c-.004.005-.007.012-.01.018 2.695 4.26 7.158 7.273 12.352 7.995v-.062z" fill="#FFF" mask="url(#b)"/><path d="M10 24.874c0 .184.153.333.34.333h14.32c.187 0 .34-.15.34-.333v-.667c0-2.697-1.844-5-5.455-5h-4.09c-3.611 0-5.455 2.303-5.455 5v.667zm8-6.667a4 4 0 1 0-.001-8.001A4 4 0 0 0 18 18.207z" fill="#2C3C4A" mask="url(#b)"/></g></svg>